<svg id="Layer_1" data-name="Layer 1" xmlns="http://www.w3.org/2000/svg" viewBox="0 0 1000 1000"><defs><style>.cls-1{fill:#0061af;}.cls-2,.cls-8{fill:none;}.cls-2{stroke:#000;stroke-width:0.6px;}.cls-3{fill:#c69a47;}.cls-3,.cls-4,.cls-7{fill-rule:evenodd;}.cls-4{fill:#dcddde;}.cls-10,.cls-5,.cls-7{fill:#fff;}.cls-6{fill:#034ea2;}.cls-9{fill:#939598;}.cls-10{stroke:#17479e;stroke-width:0.21px;}</style></defs><path class="cls-1" d="M376.94,476.67c8.4,11.85,20.45,28.54,49.89,28.54,21.31,0,37.29-12.74,37.29-35.33,0-47.47-80.19-41.52-80.19-93.8,0-32.78,26.65-48.9,56.36-48.9,14.57,0,28.88,1.69,43.19,1.69v26.28c-12.61-13.27-20.19-16.66-39-16.66-19.61,0-34.18,9.89-34.18,31.08,0,43.53,80.18,38.15,80.18,92.11,0,35-33.92,54.83-65.34,54.83-13.72,0-35.33-4.53-48.21-9.9Z"/><path class="cls-1" d="M644.72,485.72c8.13,11,12.06,15.54,23.56,26.26h-23c-12.06,0-17.39-6.51-23.58-15.53l-34.2-49.18c-11.78-16.94-13.72-21.76-30-23.16V475c0,12.72,0,27.41,6.18,37h-39c8.16-13,7.57-26.55,7.57-38.71V368.72c0-12.71,0-27.4-6.18-37,23.57,0,46-2.84,67.89-2.84,28.61,0,43.45,15.83,43.45,37.88,0,26-21.32,43-41.5,51.16Zm-87.2-72.62a98.75,98.75,0,0,0,12.61.81c27.19,0,42-14.69,42-41.53,0-28.22-16-31.63-40.92-32.21H558.07c-.28,4.24-.55,9.06-.55,13.57Z"/><path class="cls-1" d="M868.21,331.71c-6.45,10.74-5.63,26-5.63,40.1,0,33.92-1.4,69.26,2.26,103.14,1.38,12.72,2.53,25.71,8.71,37H832.31c5.05-14.13,5.05-35,5.05-50.85V367.31c0-2.83,0-6.2-2-6.2s-2.82,1.95-3.65,4.22L769,514.82l-53.3-138.74c-3.07-8.19-5-15-7.57-15s-2.53,5.06-2.53,9.31l-.26,91.83c0,22.05,0,40.41,6.17,49.73H678.09l2.53-3.66c10.37-15,11.5-59.64,11.5-90.15V347.52c0-7.61-.3-11.57-7-15.81h34.78c3.36,0,7.58.55,8.71,4.24l41.49,123.18c1.39,4.25,2.23,9.06,4.48,9.06,2.54,0,3.38-2.83,5.06-6.78L828.11,343.6c2.51-6,4.47-11.89,11.49-11.89Z"/><path d="M378.85,560.85h6.22v40.53c-.08,15.21,7.15,21,19.15,21s19.36-5.75,19.26-21V560.85h6.23v41.89c0,13.47-7.23,24.94-25.49,24.94s-25.37-11.47-25.37-24.94Z"/><path d="M442.2,560.85h7l38.12,55.36h.18V560.85h6.23V626.3h-6.95l-38.14-55.36h-.19V626.3H442.2Z"/><path d="M507.28,560.85h6.24V626.3h-6.24Z"/><path d="M519.92,560.85h6.7l21.28,58.59h.17l21.09-58.59h6.59L551.48,626.3h-7.26Z"/><path d="M581.52,560.85h45.2v5.32h-39v23.66h36.5v5.33h-36.5V621H627.2v5.31H581.52Z"/><path d="M635.89,560.85h30c10.83,0,19.89,5.25,19.89,17.06,0,8.23-4.31,15-12.74,16.67v.2c8.53,1.09,11,7,11.47,14.75.27,4.49.27,13.48,3,16.77h-6.86c-1.56-2.57-1.56-7.42-1.75-10.17-.53-9.16-1.29-19.34-13.11-18.88H642.12v29h-6.23Zm6.23,31.08h23.29c7.61,0,14.12-4.77,14.12-12.74s-4.77-13-14.12-13H642.12Z"/><path d="M700,604.78c-.31,13.43,9.42,17.56,21.34,17.56,6.87,0,17.32-3.74,17.32-13.27,0-7.41-7.41-10.36-13.47-11.82l-14.56-3.58c-7.72-1.93-14.8-5.59-14.8-15.76,0-6.41,4.17-18.43,22.58-18.43,12.93,0,24.29,7,24.18,20.37h-6.21c-.4-10-8.62-15.07-17.89-15.07-8.53,0-16.4,3.33-16.4,13,0,6.15,4.59,8.72,9.91,10l16,3.94c9.27,2.48,16.94,6.51,16.94,17.24,0,4.48-1.83,18.7-25,18.7-15.48,0-26.84-6.95-26.1-22.9Z"/><path d="M755.26,560.85h6.22V626.3h-6.22Z"/><path d="M768.1,560.85H820v5.32H797.15V626.3h-6.22V566.17H768.1Z"/><path d="M844.36,599.32,818.6,560.85H826l21.53,33.2L869,560.85h7.42L850.6,599.32v27h-6.24Z"/><path d="M383.48,651.73a34.15,34.15,0,0,0,0,33.36h-1.64a30.84,30.84,0,0,1,0-33.36Z"/><path d="M386.33,651.73h2.38v19.08c0,3.94,1.72,5.9,5.21,5.9s5.15-2,5.15-5.9V651.73h2.42v19.1c0,5.56-2.69,7.87-7.57,7.87s-7.59-2.31-7.59-7.87Z"/><path d="M406.82,658.56h2v2.72h.1A5.47,5.47,0,0,1,414,658.1c3,0,5,1.56,5,5.28v14.88h-2.19V664c0-2.71-1.14-4-3.4-4-2.6,0-4.34,2-4.34,5v13.26h-2.22Z"/><path d="M435.14,675h-.07a4.89,4.89,0,0,1-4.81,3.69c-4.34,0-6.33-3.49-6.33-10.31s2-10.29,6.33-10.29a4.36,4.36,0,0,1,4.59,3.4h.08v-9.77h2.23v26.53h-2Zm-4.51,1.8c2.25,0,4.3-1.12,4.3-8.42s-2.05-8.43-4.3-8.43-4.31,1.15-4.31,8.43S428.39,676.81,430.63,676.81Z"/><path d="M454.86,671.72c-.35,4.19-2.65,7-6.35,7-4.16,0-6.61-2.9-6.61-10.31,0-6.84,2.45-10.29,6.77-10.29s6.36,3,6.36,9.56v.81H444.26v.94c0,5.69,2,7.4,4.19,7.4,2.35,0,3.8-1.66,4.18-5.09Zm-2.19-5.08c-.09-4.91-1.44-6.68-4.22-6.68s-4.1,1.77-4.19,6.68Z"/><path d="M460,658.56h2.24v3.07h.06a5.21,5.21,0,0,1,5-3.53,2.87,2.87,0,0,1,.77.11v2.22a6.57,6.57,0,0,0-1.08-.1c-2.44,0-4.72,1.76-4.72,5.58v12.35H460Z"/><path d="M485.3,668.46c-2.79-1.09-3.79-2.72-3.79-4.67,0-4.06,2.53-5.69,5.85-5.69,3.72,0,5.43,1.88,5.43,5.49v.56h-2.23v-.56c0-2.56-1.18-3.63-3.21-3.63-2.61,0-3.62,1.37-3.62,3.34,0,1.38.43,2.44,2.69,3.29l3.22,1.22a5.05,5.05,0,0,1,3.67,5c0,3.39-1.92,5.88-6.07,5.88s-6.07-1.68-6.07-6.12V672h2.23v.5c0,2.87,1.26,4.35,3.81,4.35,2.34,0,3.87-1.3,3.87-3.49,0-1.76-.7-2.86-2.67-3.65Z"/><path d="M510.21,671.72c-.31,4.19-2.62,7-6.35,7-4.15,0-6.59-2.9-6.59-10.31,0-6.84,2.44-10.29,6.8-10.29s6.34,3,6.34,9.56v.81H499.64v.94c0,5.69,2,7.4,4.19,7.4,2.34,0,3.79-1.66,4.18-5.09ZM508,666.64c-.07-4.91-1.43-6.68-4.2-6.68s-4.12,1.77-4.19,6.68Z"/><path d="M527.21,671.72c-.33,4.19-2.63,7-6.27,7-4.15,0-6.59-2.9-6.59-10.31,0-6.84,2.44-10.29,6.77-10.29,3.7,0,5.86,2.27,6.09,6.31H525c-.26-3.08-1.47-4.45-3.87-4.45s-4.39,1.48-4.39,8.46c0,7.42,2.1,8.39,4.17,8.39,2.26,0,3.71-1.66,4.09-5.09Z"/><path d="M532.77,660.39h-2.7v-1.83h2.7v-5.47H535v5.47h3.48v1.83H535v14.14c0,1.57.65,2.07,2.12,2.07a4.33,4.33,0,0,0,1.36-.21v1.87a3.89,3.89,0,0,1-1.57.23c-3,0-4.14-.85-4.14-3.46Z"/><path d="M542.52,651.73h2.21v3.83h-2.21Zm0,6.83h2.21v19.7h-2.21Z"/><path d="M556.44,658.1c4.34,0,6.81,3.45,6.81,10.29s-2.47,10.31-6.81,10.31-6.8-3.46-6.8-10.31S552.09,658.1,556.44,658.1Zm0,18.71c2.49,0,4.44-2.14,4.44-8.42s-2-8.43-4.44-8.43-4.43,2.13-4.43,8.43S554,676.81,556.44,676.81Z"/><path d="M568,658.56h2v2.72h.09a5.48,5.48,0,0,1,5-3.18c3,0,5.06,1.56,5.06,5.28v14.88H577.9V664c0-2.71-1.1-4-3.35-4-2.61,0-4.36,2-4.36,5v13.26H568Z"/><path d="M601.1,663.65h1.2c3.17,0,5-1.78,5-4.88s-1.49-5-4.34-5c-2.64,0-4.59,1.76-4.64,5.46h-2.38c0-4.38,2.38-7.27,7-7.27,4,0,6.7,2.43,6.7,6.49,0,2.87-1.37,5.22-4.21,5.93v.07c3.11.45,5,3,5,6.22,0,4.8-2.61,8-7.55,8-4.52,0-7.16-2.57-7.36-7.47h2.38c0,3.07,1.6,5.58,5,5.58,2.68,0,5.16-1.6,5.16-6,0-3.44-2-5.29-5.25-5.29H601.1Z"/><path d="M631.72,658.1c4.35,0,6.81,3.45,6.81,10.29s-2.46,10.31-6.81,10.31-6.78-3.46-6.78-10.31S627.39,658.1,631.72,658.1Zm0,18.71c2.5,0,4.42-2.14,4.42-8.42s-1.92-8.43-4.42-8.43-4.42,2.13-4.42,8.43S629.26,676.81,631.72,676.81Z"/><path d="M644.07,660.39h-2.71v-1.83h2.71v-2.35c0-2.71.56-4.74,4.32-4.74a6.13,6.13,0,0,1,1.41.11v1.84a5.05,5.05,0,0,0-1.08-.11c-1.63,0-2.42.66-2.42,2.9v2.35h3.5v1.83h-3.5v17.87h-2.23Z"/><path d="M663.62,651.73H666v19.08c0,3.94,1.72,5.9,5.19,5.9s5.2-2,5.2-5.9V651.73h2.37v19.1c0,5.56-2.7,7.87-7.57,7.87s-7.57-2.31-7.57-7.87Z"/><path d="M691.51,666.74v-2H700v13.5h-1.85v-4.4h-.07a6.24,6.24,0,0,1-5.83,4.84c-5.42,0-8.48-4.21-8.48-13.7s3.06-13.7,8.48-13.7c5,0,7.28,3.31,7.6,7.89h-2.38c0-3.21-1.74-5.88-5.22-5.88-3.79,0-6.08,3.12-6.08,11.69s2.29,11.71,6.08,11.71c3.55,0,5.53-3.21,5.53-9.4v-.57Z"/><path d="M721.53,669.26c-.34,6.06-3.12,9.44-7.86,9.44-5.44,0-8.46-4.21-8.46-13.7s3-13.7,8.46-13.7,7.59,3.83,7.59,8.16H718.9c0-3.6-1.83-6.15-5.23-6.15-3.78,0-6.08,3.12-6.08,11.69s2.3,11.71,6.08,11.71c3.34,0,5.23-2.89,5.48-7.45Z"/><path d="M740.88,651.73h3l7.84,26.53h-2.54L747,670.52h-9.27l-2.16,7.74h-2.5Zm5.59,16.81L742.4,653.6h-.08l-4.07,14.94Z"/><path d="M767.11,671.72c-.34,4.19-2.65,7-6.28,7-4.16,0-6.59-2.9-6.59-10.31,0-6.84,2.43-10.29,6.78-10.29,3.72,0,5.85,2.27,6.09,6.31h-2.24c-.25-3.08-1.49-4.45-3.85-4.45s-4.41,1.48-4.41,8.46c0,7.42,2.11,8.39,4.19,8.39,2.25,0,3.68-1.66,4.07-5.09Z"/><path d="M772.66,660.39H770v-1.83h2.71v-5.47h2.22v5.47h3.5v1.83h-3.5v14.14c0,1.57.67,2.07,2.14,2.07a4.65,4.65,0,0,0,1.36-.21v1.87a3.89,3.89,0,0,1-1.57.23c-3,0-4.15-.85-4.15-3.46Z"/><path d="M799,658.14h-6V656.5c4.43,0,6.38-1.77,6.5-4.51h1.73v26.27H799Z"/><path d="M814.13,672.54c.1,2.56,1.54,4.27,4.14,4.27,3.66,0,5.43-3.25,5.54-11.93l-.06-.07a5.68,5.68,0,0,1-5.65,4.3c-4.57,0-6.92-3.33-6.92-8.17s2.28-9,7.33-9c5.92,0,7.67,4.37,7.67,12.64,0,8.61-1.7,14.07-8,14.07-4.14,0-6.33-2.57-6.39-6.16Zm4.33-5.26c3.61,0,4.9-3.37,4.9-6.74s-1.29-6.74-4.9-6.74-4.9,3.36-4.9,6.74S814.84,667.28,818.46,667.28Z"/><path d="M844.14,652.43v2h-9.71l-1.18,9.17.06.06a5.63,5.63,0,0,1,5.1-2.66c4.05,0,7,2.84,7,8.68,0,5.29-2.64,9-7.8,9-4.07,0-7-2.57-7-7.16H833c0,3,1.71,5.27,4.86,5.27s5.13-2.57,5.13-7.5c0-3.66-1.57-6.45-5.09-6.45a4.59,4.59,0,0,0-4.56,3h-2.2l1.53-13.46Z"/><path d="M861.83,658.14c-.11-2.57-1.57-4.34-4.18-4.34-3.6,0-5.4,3.29-5.51,12l.08.06a5.66,5.66,0,0,1,5.63-4.29c4.56,0,6.91,3.33,6.91,8.17s-2.26,9-7.31,9c-6,0-7.69-4.4-7.69-12.67,0-8.59,1.73-14,8-14,4.16,0,6.35,2.56,6.42,6.15Zm-4.34,18.67c3.63,0,4.88-3.31,4.88-6.7s-1.25-6.71-4.88-6.71-4.9,3.34-4.9,6.71S853.87,676.81,857.49,676.81Z"/><path d="M867.34,685.09a34.5,34.5,0,0,0,0-33.36h1.6a30.73,30.73,0,0,1,0,33.36Z"/><line class="cls-2" x1="879.5" y1="536.17" x2="370.2" y2="536.17"/><path class="cls-3" d="M338.94,424.14A109.22,109.22,0,1,1,229.71,314.91,109.18,109.18,0,0,1,338.94,424.14Z"/><path class="cls-4" d="M325.12,424.45a95.67,95.67,0,1,1-95.67-95.68A95.69,95.69,0,0,1,325.12,424.45Z"/><path class="cls-5" d="M161.44,456a5.76,5.76,0,0,0,1-5.79c-.76-2-2.54-3.11-4.67-2.3-4.51,1.63-1.15,9.11-6.11,10.92-3.09,1.14-5.59-.83-6.62-3.7-.49-1.4-.85-2.82-1.34-4.18l2.5-.91a4.46,4.46,0,0,0-.23,4.31c.71,1.88,2.13,2.91,4.13,2.19,4.13-1.52.83-9,6-10.88,3.32-1.22,6.38,1.34,7.5,4.32a15.62,15.62,0,0,1,.72,5Z"/><path class="cls-5" d="M155.44,423a16.74,16.74,0,0,0,2.52-2.53l.14,2.34c.06,1.22-.56,1.78-1.45,2.48L151.92,429c-1.64,1.32-2.14,1.53-2.18,3.18l5.16-.29a7,7,0,0,0,3.69-.84l.22,4a6.8,6.8,0,0,0-3.95-.54l-10.55.61c-1.28.09-2.78.16-3.69.85-.14-2.4-.55-4.65-.67-6.89-.2-2.89,1.33-4.49,3.53-4.64,2.65-.13,4.47,1.93,5.41,3.93Zm-6.79,9.28a6.84,6.84,0,0,0,0-1.28c-.16-2.76-1.73-4.18-4.44-4.05-2.86.19-3.08,1.82-3,4.37l.07,1.35c.45,0,.92,0,1.36,0Z"/><path class="cls-5" d="M146.56,389.88c.86,1,2.36,1.33,3.72,1.73a96.07,96.07,0,0,0,10,2.75,9.64,9.64,0,0,0,3.85.23l-1.18,4a16.66,16.66,0,0,0-4.8-2l-9.1-2.73c-.25-.08-.58-.19-.65,0s.12.31.33.45l12.62,10.48-15,1.17c-.9.06-1.63.06-1.67.31s.43.41.8.52l8.9,2.67c2.15.64,3.93,1.18,5,.86l-1,3.25-.3-.34c-1.14-1.46-5.46-2.88-8.41-3.76l-6.83-2c-.73-.22-1.16-.32-1.74.23l1-3.4c.09-.34.25-.73.65-.73l13.14-.47c.46,0,.93,0,1-.21s-.18-.4-.53-.67l-10-8.14c-.5-.42-1-.77-.82-1.47Z"/><path class="cls-5" d="M176.6,352.14a7.27,7.27,0,0,0,2,3.26l7.06,8.13a6.83,6.83,0,0,0,2.91,2.38l-2.48,2.36-1.15-1.49a.09.09,0,0,0-.16,0c-.07,0,0,.24-.07.47a8.25,8.25,0,0,1-2.86,5.11c-2.5,2.13-5.05,2.58-7.39,0l-6.61-7.6a7.27,7.27,0,0,0-3-2.43l2.91-2.54a7.5,7.5,0,0,0,2,3.27l5.48,6.3c2.07,2.27,4.24,2.82,6.69.72s1.92-4.41-.27-7c-.68-.86-1.34-1.76-2.06-2.57l-2.93-3.39a7.33,7.33,0,0,0-3-2.43Z"/><path class="cls-5" d="M196.28,361.18c.09-2.55-1.18-5.79-2.07-8.14L192,347.38c-.5-1.31-1.13-2.74-2.23-3.21l2.71-1a1.07,1.07,0,0,1,1.24,0c.85.56,3.62,2.72,4.91,3.57l8.2,5.43c.3.2.66.48.8.42s.09-.34,0-.56L204,342.57a7.69,7.69,0,0,0-1.94-3.16l2.73-1.06a9.43,9.43,0,0,0,.76,4.28l4.1,10.66c.37.86.69,1.66,1,2.44l-1.94.74-15.09-10.12c-.16-.11-.33-.22-.4-.17s-.1.21,0,.47l2.66,6.85c.79,2.11,1.81,4.83,3.41,6.5Z"/><path class="cls-5" d="M219.89,339.56a8,8,0,0,0-1-3.67l3.8-.36a7.2,7.2,0,0,0-.28,3.78l1,10.7a7.27,7.27,0,0,0,1,3.68l-3.84.36a7.17,7.17,0,0,0,.3-3.8Z"/><path class="cls-5" d="M238.5,354.23l-.2-1.51c-.6-4.72-1.49-12-2.84-16.54l-.27-1,2.51.39c.55.09.56.76.68,1.22.77,4.6,1.71,9.2,2.18,13.85,0,.55.14.86.34.88s.41-.4.61-.81c1.21-2.34,5.92-9.83,6.36-12.5a5.67,5.67,0,0,0,0-1l3.5.55-.67.81a118.58,118.58,0,0,0-9.24,14.62l-.8,1.43Z"/><path class="cls-5" d="M259,358.76l3,1.46a7.29,7.29,0,0,0,5.14.69l-1.58,2.15A26.11,26.11,0,0,1,263,362l-7.45-3.61a7,7,0,0,0,2.27-3l4.71-9.64a7,7,0,0,0,1.09-3.65l9,4.37-.88,2.05a6.51,6.51,0,0,0-3.34-2.83L266,344.43l-3,6.13c2,1,4.07,2,6.11,2.78-1.59,1-4.51-.38-6.11-1.18l-.64-.3Z"/><path class="cls-5" d="M283.69,374.48a16.32,16.32,0,0,0-.06,3.59l-1.69-1.6c-.92-.82-.86-1.67-.71-2.76l.82-6c.29-2.07.48-2.58-.65-3.82l-3.48,3.79a6.66,6.66,0,0,0-2.08,3.19l-2.93-2.71a6.86,6.86,0,0,0,3.24-2.35l7.17-7.75a7.39,7.39,0,0,0,2.07-3.17c1.77,1.61,3.65,3,5.27,4.45,2.14,2,2.17,4.19.68,5.86-1.82,1.91-4.56,1.69-6.63.91Zm-1.54-11.42c.29.31.56.62.9.95,2,1.87,4.16,1.81,6-.18s1-3.46-.86-5.23l-1-.9a12.26,12.26,0,0,0-1,.95Z"/><path class="cls-5" d="M290.53,381.53a5.81,5.81,0,0,0,.07,5.86c1.12,1.84,3.06,2.61,5,1.45,4.13-2.41-.54-9.17,4-11.83,2.86-1.68,5.63-.18,7.18,2.44.74,1.3,1.34,2.62,2.07,3.88l-2.28,1.33a4.51,4.51,0,0,0-.56-4.26c-1-1.73-2.61-2.5-4.49-1.41-3.79,2.24.82,9-3.89,11.72-3.06,1.82-6.53-.14-8.12-2.91a15,15,0,0,1-1.64-4.74Z"/><path class="cls-5" d="M310.78,398.6c1.24-.36,2.69-.78,3.42-1.68l1.1,3.68a7.28,7.28,0,0,0-3.75.46l-10.3,3.12a7,7,0,0,0-3.39,1.71l-1.12-3.69c1.12.33,2.52-.13,3.77-.48Z"/><path class="cls-5" d="M300.13,419.13a7.38,7.38,0,0,0,3.76.43l13-.56-.18-3.79a2.9,2.9,0,0,0-.71-2l2.1.49.62,14.35c-1.24-.43-1.52-2.18-1.57-3.34l-.14-3.15-13.05.59a6.82,6.82,0,0,0-3.68.79Z"/><path class="cls-5" d="M298.66,439.88a7,7,0,0,0,3.46,1.54l2.5.64c1.95.49,4,.1,6.56-.4a21.46,21.46,0,0,0,6.4-2.25l-.6,2.37c-.26,1-.56,1.12-1.5,1.42a31.72,31.72,0,0,1-7.57,1.14c-.43,0-.89,0-1,.24s.4.46.82.86l2.88,2.73a8.35,8.35,0,0,0,3,2.11,1.87,1.87,0,0,0,1.24-.15l-.9,3.51-4.09-4.43c-2.48-2.69-3.56-4.1-7.23-5l-1.17-.29c-1.24-.31-2.66-.71-3.77-.31Z"/><path class="cls-6" d="M160.85,454.75a5.74,5.74,0,0,0,1.07-5.74,3.48,3.48,0,0,0-4.62-2.43c-4.57,1.59-1.3,9.12-6.3,10.84-3.13,1.08-5.56-.94-6.53-3.81-.5-1.37-.82-2.84-1.29-4.2l2.5-.89a4.34,4.34,0,0,0-.27,4.3c.63,1.89,2.07,3,4.11,2.28,4.14-1.45,1-9,6.11-10.77,3.35-1.18,6.37,1.45,7.43,4.46a16.22,16.22,0,0,1,.68,5Z"/><path class="cls-6" d="M155.44,421.66a16.46,16.46,0,0,0,2.56-2.53l.1,2.34c.06,1.22-.58,1.79-1.48,2.45l-4.81,3.7c-1.69,1.28-2.12,1.48-2.24,3.15l5.16-.22a7.13,7.13,0,0,0,3.72-.78l.15,4a6.68,6.68,0,0,0-3.95-.63l-10.53.45a7.5,7.5,0,0,0-3.72.76c-.12-2.4-.45-4.66-.56-6.89-.11-2.92,1.4-4.47,3.64-4.59,2.61-.07,4.41,2,5.35,4Zm-6.95,9.15a9.46,9.46,0,0,0,0-1.3c-.12-2.75-1.69-4.21-4.37-4.11-2.87.14-3.12,1.77-3.08,4.31l0,1.33a7.84,7.84,0,0,0,1.37,0Z"/><path class="cls-6" d="M147.15,388.4c.82,1,2.33,1.36,3.69,1.79a100.1,100.1,0,0,0,10,2.95,10,10,0,0,0,3.81.28l-1.27,4a17,17,0,0,0-4.73-2.05l-9-2.86c-.27-.08-.59-.21-.68,0s.12.31.32.48l12.47,10.69-15,.91c-.9,0-1.58,0-1.68.27s.4.41.81.53l8.86,2.84c2.13.7,3.88,1.24,5,.93l-1,3.23-.29-.35c-1.12-1.46-5.35-2.94-8.33-3.88L143.23,406a1.59,1.59,0,0,0-1.75.18l1.1-3.34c.09-.34.28-.71.65-.71l13.15-.28c.48,0,1,.05,1-.14s-.15-.41-.48-.71L147,392.65c-.48-.39-1-.79-.75-1.47Z"/><path class="cls-6" d="M177.87,351.15a7.24,7.24,0,0,0,2,3.31l6.88,8.24a7.67,7.67,0,0,0,2.88,2.47l-2.52,2.28L186,366c0-.08-.12-.08-.17,0a2.31,2.31,0,0,0-.07.43,8.13,8.13,0,0,1-3,5.07c-2.52,2.13-5.06,2.51-7.39-.13l-6.47-7.71a7.61,7.61,0,0,0-2.9-2.49l3-2.45a7,7,0,0,0,1.92,3.27l5.37,6.42c2,2.29,4.15,2.91,6.66.83s2-4.4-.14-7.06c-.67-.84-1.31-1.77-2-2.6l-2.89-3.42a7.61,7.61,0,0,0-2.89-2.51Z"/><path class="cls-6" d="M197.34,360.58c.16-2.52-1-5.81-1.93-8.15l-2.09-5.73c-.47-1.32-1-2.75-2.16-3.24l2.71-1a1.12,1.12,0,0,1,1.23,0c.86.54,3.6,2.79,4.89,3.66l8.06,5.58c.29.21.65.49.84.44s.07-.34,0-.58l-3.49-9.44a7,7,0,0,0-1.9-3.21l2.78-1a9.19,9.19,0,0,0,.68,4.33l3.91,10.69c.35.91.68,1.7,1,2.49l-1.91.71L195,345.71c-.15-.12-.27-.21-.38-.18s-.11.23,0,.46l2.52,6.91c.79,2.14,1.72,4.85,3.35,6.57Z"/><path class="cls-6" d="M221.32,339.37a6.88,6.88,0,0,0-.92-3.67l3.86-.3c-.6,1-.46,2.49-.4,3.78l.87,10.72a7.1,7.1,0,0,0,.91,3.68l-3.81.3a7.32,7.32,0,0,0,.33-3.8Z"/><path class="cls-6" d="M239.71,354.36l-.18-1.5c-.55-4.73-1.28-12-2.52-16.59l-.29-1,2.51.46c.56.09.57.73.65,1.2.68,4.6,1.58,9.25,2,13.9,0,.54.15.86.29.88s.43-.38.63-.77c1.24-2.34,6.09-9.72,6.57-12.41a2.94,2.94,0,0,0,0-1l3.5.63-.64.79a117.9,117.9,0,0,0-9.57,14.46l-.8,1.41Z"/><path class="cls-6" d="M260.18,359.29l2.94,1.5a7.36,7.36,0,0,0,5.14.79l-1.66,2.09c-.69-.3-1.61-.64-2.51-1.09l-7.33-3.77a7.34,7.34,0,0,0,2.33-3l4.87-9.57a7.32,7.32,0,0,0,1.15-3.61l8.85,4.52-.88,2a6.45,6.45,0,0,0-3.3-2.86l-2.37-1.23-3.1,6.09c2,1,4.05,2.06,6.08,2.89-1.62,1-4.48-.47-6.08-1.29l-.66-.32Z"/><path class="cls-6" d="M284.52,375.41a15.62,15.62,0,0,0-.1,3.59l-1.71-1.6a2.79,2.79,0,0,1-.63-2.82l.93-6c.31-2.06.51-2.54-.57-3.8l-3.59,3.71a7.2,7.2,0,0,0-2.11,3.15l-2.88-2.74a7.34,7.34,0,0,0,3.27-2.3l7.33-7.64a7.43,7.43,0,0,0,2.13-3.14c1.72,1.66,3.57,3,5.17,4.56,2.12,2.05,2.1,4.24.56,5.84-1.83,1.91-4.59,1.63-6.64.82ZM283.2,364a7.61,7.61,0,0,0,.86.95c2,1.92,4.11,1.91,6-.06s1-3.43-.75-5.25l-1-.93c-.31.3-.69.61-1,.95Z"/><path class="cls-6" d="M291.23,382.6a5.68,5.68,0,0,0,0,5.84,3.44,3.44,0,0,0,5,1.55c4.19-2.35-.34-9.17,4.25-11.79,2.89-1.61,5.66-.05,7.13,2.61.7,1.26,1.28,2.63,2,3.9l-2.3,1.32a4.53,4.53,0,0,0-.49-4.31c-1-1.73-2.56-2.54-4.42-1.48-3.85,2.16.65,9-4.12,11.68-3.08,1.73-6.5-.3-8.07-3.1a14.82,14.82,0,0,1-1.55-4.75Z"/><path class="cls-6" d="M311.18,400a6.9,6.9,0,0,0,3.44-1.62l1.07,3.68a7.35,7.35,0,0,0-3.8.42l-10.34,2.91a7.4,7.4,0,0,0-3.42,1.65l-1.07-3.69a7.48,7.48,0,0,0,3.78-.41Z"/><path class="cls-6" d="M300.2,420.32a6.93,6.93,0,0,0,3.75.54l13-.34-.11-3.81a3.11,3.11,0,0,0-.65-2l2,.53.39,14.32c-1.26-.42-1.47-2.16-1.5-3.33l-.11-3.16L304,423.4a8,8,0,0,0-3.71.74Z"/><path class="cls-6" d="M298.3,441.13a7.63,7.63,0,0,0,3.45,1.58l2.55.71c1.91.51,3.95.18,6.54-.32a20.94,20.94,0,0,0,6.42-2.14l-.64,2.37c-.28,1-.6,1.13-1.53,1.4a32.13,32.13,0,0,1-7.6,1c-.41,0-.86,0-.92.2s.36.5.79.92l2.81,2.77a8.79,8.79,0,0,0,2.95,2.13,1.66,1.66,0,0,0,1.2-.11l-.94,3.48-4-4.49c-2.42-2.73-3.48-4.13-7.15-5.13l-1.12-.34a7.54,7.54,0,0,0-3.8-.36Z"/><path class="cls-6" d="M297.34,424.49a68.16,68.16,0,1,1-68.15-68.15A68.17,68.17,0,0,1,297.34,424.49Z"/><path class="cls-7" d="M234.86,370.6c1,.06,1-.81,2.07-.73v1.76c.34,0,.68,0,1.06,0s.26-.88.32-1.39c1.23,0,1.4,1.12,1.4,2.42,1-.37,1.33-1.48,2.78-1.42a1.88,1.88,0,0,1-2.06,2.11c.72,1,1.8-.5,3.12,0-1.21,2.58,1.72,2.37,1.08,4.16,1.67-.1,1.07-2.42,3.11-2.12.27,1.06-.36,1.27-.31,2.09a6.7,6.7,0,0,1,2.78-.37,2,2,0,0,1-1.74,1.77c.24.91,1.06,1.26,1.75,1.72-.42,1.4-1.68.57-2.42,1.06-2.62,1.76-1.42,5.79,2.48,4.85.61-.67.3-2.24,1-2.8,1.45.38.07,1.54.37,2.78,1.39-.4.66-2.11,1-2.78,1.21.66,1.53-.17,2.77-.4a6.28,6.28,0,0,0,1.08,2.11c.78-.71.92-.71,1.72,0,0,.87-1.29.55-1.72,1.05,1.38,1.28-1,3.65,1.78,4.17.95-.52.23-1.58,1-2.79,1.13-.1.86,1.22,1.42,1.72.82-.12.66-1.22,1.74-1.05a12.23,12.23,0,0,1,0,3.82c1.43.14-.25-.89.71-1.4,1.06.49.29.78.7,2.05-.49,0-.92,0-1.41,0,.24.64.19,1.46.74,1.76-2.24,1.56.06,2.38-1.71,3.13.88,1.21,1-1.23,2.09-1.05-.26,1.35-1.46,1.8-2.08,2.78-.19,1.24,1.22.86,1.08,2.09,1.39.09.88-1.63,1.71-2.09,1,.51,1.1,2.15.72,3.11.93.11,1.14-.49,1-1.37,1.27.6,1-.09,2.09-.39.24.89.54,1.81,2.09,1.39.56,1.92-1.19,1.55-2.05,2.09.5.61,1.9.37,1.73,1.7a6.2,6.2,0,0,1-2.08.73c.6.34.91.95.72,2.06.4,0,2.05.57,1.07,1.76a13.45,13.45,0,0,1,2.41-1.76c.83,0,.09,1.12-.33,1a2.48,2.48,0,0,0,1.05.71c.65-.06.23-1.17,1.05-1.09-1-.71-.53-1.94-1.78-1.71,1.4-1.49.44-1.25,0-3.13h2.11a2.11,2.11,0,0,0,0-1.74c.87-1,2.29.44,2.44,1.36,1-.58.18-1.12,1.73-1.4-.06-.65-1.18-.19-1.4-.69.17-1.06,1.85-.69,2.07-1.77-.18-1.55-2.4-1.06-1.79-3.46a3.51,3.51,0,0,1,2.49,2.43c1.25-.25-.11-1.37.31-2.81,1.45.17,1.3,2,1.76,3.13.5-.06.12-1,.69-1,.33,0,.67,0,1,0,.87.92-.3,1.71,0,3.13,1.54.5.73-1.36,2.08-1.05.24,1.06-.94.68-.69,1.75.15.48.62,0,.71-.34,1.16.51-.71.83-.34,1.73,1.71,1.32,2.49-1.22,4.53-.74-.93,1.65.9,2.23,2.11,2.75-1,1.4.68,1.5,1.74,2.43.36,1.27-1.82.65-2.07.37-.62.62.07,1.08.7,1.39,0,.79-1.48.15-2.06.35.1,1.25,1,.86.34,2.09-.09.7,1-.08,1-.35,1,.84-.24,2.51-1,2.79.07.5,1,.11,1,.69-1,1.89-3.19,2.93-4.13,3.84.44.92,2.25-.86,2.77,0-1.6,1.36-2.93,1.05-4.85,1.78-.13,1.3.29,2,1.42,2.05-1.7,1.11.43,2.19-1.39,2.48.91,1.24,2.11-.54,4.18.3a1.91,1.91,0,0,1-2.79,1.07c0,1.09,1,1.14.73,2.42-.8-.21-1-1.15-1.75-1.36a4.35,4.35,0,0,0,.73,2.4c-.73,1.26-2.32-1.57-2.8.38-.71-.09-.08-1.54-1-1.39-.78.86,1.31,2.27.36,3.48.6-.45.67-1.37,1.37-1.72,1.46.37-.22,1.78-.67,2.43.2,1.07,1.07,1.49,1.43,2.41-.59,1-.92.33-2.1.36,0-.69,0-1.38,0-2.1-.09-1-1.42,1.25-1.7,0-.51.45-.55,1.33-1.05,1.74-1.26-.24-.51-1.6,0-2.07-.38-.31-2.72.89-1.73,2.1-2.2-.58.48,2.79-3.11,2.46,0,.94.59.68,0,1.39-1.82-.42-2.08.69-2.42,1.77-.81-.58-1.64-.92-1-2.07-.95.08-1,1.07-1.72,1.38-.85-.64-.26-2.77.31-3.12.25-1-.7-.71-.73-1.38-.73-.06-.11,1.24-.3,1.73-1.06.14-.74-1.13-1.06-1.73-1.36-.15-.69,1.61-2.41,1.07,0,.62-.68.74-1.06,1.75-.82.14-.74-.63-1.71-.34,1.17,1.12,4.37.23,4.53,2.4-1.76.53-2.64-1-3.5-.31,1,.84-.26.62.72,2.09a14.19,14.19,0,0,1-3.13-1c-.65.62.3,1.17.71,1.73-.71,1-2-.24-2.46-.65-.62.73-1,1.69-1.71,2.44-.32-.25-.32-1.13-.38-2.44.94,0,.91-1,1.41-1.41-.47-1-.7,1.09-1.73.71.29-.86.92-1.36,1-2.46-1.26.19-1.15,1.66-1.38,2.82-.52-1.55-2.11-.13-2.8-1.72-1.16.37-.61,2.38-2.07,2.47.24-1.06-.35-1.28-.35-2.1a17.76,17.76,0,0,0-1,2.43c-1.09-1.36-.26-2.5-2.1-3.1,1.45.15,1.73-.8,2.77-1.06,0-.77-1.26-.15-1.76-.34-.12-1.53,2.13-.67,2.77-1.41-2.59-1.94-6,.86-7.63,2.14.53,1,1.35-.48,2.46,0,.22,1.24-1,1.05-2.09,1,.23,1,2,.53,2.46,1.37-.31.85-1.8,0-2.11-.34-.8.62-.8,2-1,3.17-2.42-.61.56-2.68-.35-3.84-3.52-.83-7.38,4.84-6,7.33.73,0,.43-.95,1.41-.72-.15,1.6,1,.07,1.41,2.08-2.3.18-2.65,2.23-4.87,2.48-1.36,5-2.71,13,3.71,16.4-.07.64.42.74.33,1.39-1-.34-1.3-1.44-2.77-1.36,2.24,1.77,3.63,2.15,7.29,2.37a1.36,1.36,0,0,1-1.35.71c.3,1,1.07-.48,2.08,0,0,.35-.43.27-.7.37.94.6,1.69-.05,2.79-.05,0,.68-1.14.26-1.05,1.07a4.19,4.19,0,0,1,3.5.31c-.1.46-.85.31-1.38.36,4.56.61,3.53,3,8.36,3-1.07.42-.25,1.21.33.36.55.85,3-.24,3.51.67l-4.17,0c3,.77,7.34.21,10.44.94,1.51,0,3,0,4.51,0-.62.79-2.65.14-3.81.39-6.78.35-12.74-.14-17.07-2.31,1.55,1.72,4.87,1.6,6.63,3.11.77-.77,7.32-.15,10.79-.1.48,0,6-.12,3.14.31-4.89.73-13.07.08-19.15-.18-1.08-.54,1.49-.31,2.09-.37-1.29-1.13-5.29-.87-6.59.06,1.08,2.06,5.93.24,8,1.31-3,.93-7.28.17-10.44.1-.84-.39.84-1.45-.68-1.37-.43.2.37.72.36,1-5.78.19-12.32-1-19.16-.17,4.4-1.49,10.42-1.07,15.33-.49-3.52-1.46-13.16-1.64-17.05.49a14.74,14.74,0,0,0-5.57-.29c-.16-1,1.9.25,1.73-.73,1.8.83,4.56,0,6.27-.37-1.79-.47-5.4.45-8-.65,1.22,1.45-5.51.39-7.63.77,1.39.9,4.79-.22,6.24.65-7,.8-15.54.13-21.89,1.57,6.47-2.34,14.11-2.11,17.67-5.73.15-.77,1.85-.27,2.1,0-1.37.7-2.83,1.35-4.16,2.11,1.14.31,3-1.65,4.85-1.77-.54-.26-.52-1.11-1.41-1,3.47.61,6-2.7,8.32-2.5a1,1,0,0,1,0-1.37c-8.18,3.56-15.18,7.93-27.41,7.52,2.12,1.17,5.21-.84,7.31.29-3.83,1.16-8.25.77-12.48.82.2-.46,3.6-1.14,4.85-.77-.92-1.35-4.33-.1-5.91.07-1.21.28-2-.52-.38-.35,2.57-.76,4.21-.42,6.93-1.1-1.89-1.06-4.25.37-6.58.07,4.69-.81,9.84-1.83,14.58-1.52a6.64,6.64,0,0,1,4.16-1.07c.46-.89,4.75-1.69,6.61-1.82-.37-.65-.26-1.84-1.72-1.37-.18.83,1.54-.23,1,1-5.65-.24-8.41,2.33-14.25,1.89,4.38,1-6.09,1.41-8.34,1.45.81-1,2.35-1.6,2.78-.72.38-.07.27-.64.33-1,.52,0,1.11,1.45,1,0a1,1,0,0,1,.72,1c.58-1.48,1.81-1.24,3.47-1.07-.18-.3-.33-.62-.73-.68.15-.75,1.08.47,1.43.68.39-.09.27-.64.32-1.06,2.13.44,2.66-.65,6.25-.72-.77-.6-5.65-.36-1.73-.69a12.17,12.17,0,0,0,4.86-1.44c4,.39,7.33,2.19,9.06.63a25,25,0,0,0,4.11-4.6c-.39-4.29,3.9-14.31.12-25.36-.94-.92-1.84-.93-3.8-1.08-5.28-.44-10.75,5-15.59,3.95a6,6,0,0,0-1.38,2.8c-1.9-1.87-3.06,2.08-3.46,3.86-1.09-.07-1.17-1.15-1.06-2.43-1,0-.55,1.48-1.71,1.41v-1c-1-.26-.65.71-1.06,1.06-.62-.06-.21-1.2-.68-1.42-1,.07-.6,1.51-1.74,1.43.72-3.09-1.9-2.74-2.83-4.16-.51.31-.5,1.14-.68,1.74-.8-1-1.75-.45-2.42.38-.89-.39.09-2.7-.72-3.12-2,1.23-3.27,2.11-5.2,1.77,1.41.66-.07,1.46-.35,2.47-.59-.34-.77-1.1-.71-2.1-1.48-.19-1.41,1.15-2.77,1.06,0-2.18,2.74-3.18,2-4.9a3,3,0,0,0-.68,1.07c-.84-.08-.22-1.53,0-1.73,0-.75-1.24-.16-1.73-.34.32,1.1,1,1.53.36,2.77-.71-.66-1.85-.93-1.75-2.41-1.15.14-.67,1.86-2.05,1.75-.22-1.16-.33-1.52-1.44-1,.84-1,.7-2.12.32-3.48l-1.73,0c.44-2-1.38-1.64-1.39-3.13a1.29,1.29,0,0,1,1.73,0c.19-1.3-.93-2.21,0-3.15.83.19,1.22.86,1.72,1.39,1.33.49.68-1,1.75-.71-.4-1.35.19-1.42-.4-2.45-1.2,0-.64,1.65-2.06,1.44-.5-1.69-.13-2.28-2.46-1.72.42-.52,1.34-.56,1.72-1.08-.09-.47-.84-.27-1.38-.32a1.76,1.76,0,0,1,1.74-.72c-.61-1.12-1.26-.08-2.76-.32-.18-.66-.77-.86-.71-1.72,1.3,1.27,1.39-.25,1.36-2.11-2,.44-1.23,3.64-3.09,4.18-.24-2-.56-3.84-2.82-3.78.31-.61.64-1.21,1.72-1.06.95-.25.7.71,1.06,1,.81-.58,1.83-1,2.07-2.11-2.11.69-3.28.69-4.54-1,1.41.47,1.09-.77,2.09-.73-.06-1.11-1.11-2.28-.38-3.11.77.74,1.68,1.33,2.47,2.06a9,9,0,0,1,.64-2.78c.87.29.93,1.37,1.07,2.43,1.63.17,1.52-.94,3.12-1.42.54,1.59,1.92-.89,3.13.66.53-.34-.61-1.91-1.07-2.43.78-1.51,2.94.71,2.47,1.72a1.65,1.65,0,0,1,1-.36c-.62-.71-1.12-2.81-.39-3.82.45.12.54.62,1.06.7.18.75-.67.5-.68,1.05s.75.85.68,1.72c1.24-1.11,1.19-3.44,2.4-4.54,1.15.23.44,2.39,1.43,2.77,1.23.17.83-1.24,2.06-1.05.31,1.1-1.1.49-1,1.39a1.59,1.59,0,0,1,.36,1,2,2,0,0,0,1-2.11c1.93.87.61-.52,1.7-1.39,0-.79-1.46-.14-2.09-.33-.26-1,.72-.73.72-1.41,1.08-.34.48,1.13,1.37,1,.41-.06.3-.63.35-1.06-.15-.5-.45.15-1.05,0-.12-.62.26-.66.69-.71-.7-1-2.54-.93-2.44-2.76a18,18,0,0,0,4.16-.38c.08-1.86-1.84-1.67-1.43-3.81.9,0,1.79,0,1.75,1-.62,0-.76-.43-1.39-.33a4.74,4.74,0,0,0,1.75,1.72c-.88-1.43.67-1.06.33-2.79.68.72,1.47,0,1.71-.7.53.27.52,1.12.73,1.72,2.35.34,3.11.67,4.52,0a4.27,4.27,0,0,1-1.76-2.44,5.42,5.42,0,0,1,2.78.67c-.56-.85-1.52-1.27-1.06-3.12-1.47.38-.91,2.77-3.47,2.11-.21-1.7,1.58-1.45,2.06-2.45a19.58,19.58,0,0,1-4.86.4c-.25-1.88,1.73-1.55,1.73-3.14-1.5-.2-.68,1.87-2.45,1.39,0-.9,0-1.84,0-2.77-.83.67-1,1.94-2.43,2.11-.65-.53.61-1.49-.68-1.73.59-1.26,2.43-1.27,3.11-2.47-.33-.84-2.43.13-2.79-.65,0-1,.57-1.51,1.72-1.41-.21-.87-1.36-.75-1.05-2.07,1.39-.63,3.2.62,3.8-1.09,1.65-.2,1,2,.74,2.76-.07.74,1.19.16,1.7.35V389c.84,1.26,2.1,2.29,4.18,1.37.22,1.11-.64,1.06,0,1.72.53-.55.88-1.21,1.72-1.41,1.18-.09,1.24,1.9,2.46.66A20,20,0,0,0,199.2,390c.31-.62.61-1.22,1.72-1-.56-2.44.28-.5.28-3.13,2.07-.22,1.44,3.79,3.52,2.4-.66-1-1.33-3.43.68-3.51-.2,1.95,1.28.75,1.76,1-.6-.37-.8,1.78,1.73.69.2-.51-1.36-.84-.36-1a6.24,6.24,0,0,0-2.79-1.36c0-.65,1.18-.23,1.4-.72-1.19-1.28-1.78.89-2.78,0,.84-1.19,2.63-1.58,3.8-2.46-.29,1,.48.88.33,1.73.56-.7,1.89-1,1.78.68,1-.36-.11-1.47,0-2.09a2.36,2.36,0,0,1-1.77.37,8.27,8.27,0,0,0,1-3.13c-1.4-.23-.83,1.46-2.07,1.4,0-1.52.83-2.15,1.36-3.13-1.08-.18-1.21.61-2.44.35.08-1.82,1.55-1.92,2.42-2.1a4.07,4.07,0,0,1,0-3.14c2.11.56,2.1,3.26,3.89,4.15.79-.14,0-1.84.67-2.09-.09-.8-1.65-.2-1.38-1.39,1.66.13,2.45-1.94,4.15-.71,1-.32-.23-1.13,0-1.76a3.08,3.08,0,0,1,2.1.68c.91-.34.86-1.71,1.72-2.1a4.5,4.5,0,0,1,1.73,3.82,2.22,2.22,0,0,0,1.76-.39c-.29-.25-.19-.95-.72-1a10.79,10.79,0,0,1,4.53,0c.27,1.19-.37,1.46-.66,2.11.35.65,2.11.63,1,1.71,1.27-1,2.35.48,3.5.68.4-.09.3-.64.33-1.06-.33-.29-2-1-2.09-.32-.72-.12.37-1.21,1-1.06-.17-1.57-1.88-2.28-1.1-3.83a2.66,2.66,0,0,1,2.12,2.09c2-.16.77-3.39,3.09-3.17C234.41,369.21,235.71,369.7,234.86,370.6Zm-1.08.71c-.22-1.28.76-1.36.68-2.46C232.91,368.63,233,371,233.78,371.31Zm19.05,68.33c1.28.3,1.37-1.71.34-1.74A2.23,2.23,0,0,0,252.83,439.64Zm-27.7-66.9c.72.65,1.8-.47,1.71-1.72C225.65,371,225.57,372,225.13,372.74Zm-5.23-.62c.6-.66.42-2.51-.38-2.78C219.58,370.35,218.53,371.81,219.9,372.12Zm-3.12.35c.63-.07.77.4,1.4.33.12-1.29-.3-2-1.42-2.05A2.23,2.23,0,0,1,216.78,372.47Zm18.43.55c.08-.28.25-.4.68-.37.05-.84.05-1.67-.7-1.72C235.57,371.82,234.14,372.58,235.21,373Zm-2.43,1.4c-.37-1.51,1.16-1.13,1-2.44a2.06,2.06,0,0,1-1.39-.33C232.21,372.41,231.54,374.27,232.78,374.42Zm-16.71-1.21c-.19-1.15-2.71-1.63-2.77,0C214.59,373.39,215.72,373.71,216.07,373.21Zm-6.24,1.07a1.76,1.76,0,0,0-.7-1.73C208.59,373.06,208.78,374.38,209.83,374.28Zm28.19.79c1.6-.12.92-1.48,1.34-2.09C238.25,373,237.87,373.8,238,375.07Zm-17.74.87c1.2.86,2.22-.91,2.74-1.76-.77.49-1.28-.89-1.36,0C222.57,374.77,220.18,375,220.28,375.94Zm-7-1c.45,0,.34.59.72.7,0-.7.94-.47.68-1.4C213.9,374.16,213.41,374.34,213.3,374.94Zm13.61,1.64c0-1.31-.19-2.4-1.45-2.42A2,2,0,0,0,226.91,376.58Zm-3.87-.3c-.25,1.55,2.21,1.12,2.47.3C224.62,376.06,224.11,375.76,223,376.28Zm16.73-.18c.44,1.25,0,1.3.36,2.43.81.14.73-.63,1.73-.36.36-1.28-1.16-.66-1.41-1.37.92.09.91-.74,1-1.4C240.62,375.33,240.43,376,239.77,376.1Zm-25.4,2c1-.07,1.47-.62,1.39-1.76l-1,0C214.54,377.05,213.72,377.45,214.37,378.07Zm3.51.32a1.51,1.51,0,0,1,1,.36c-.17-.85.61-.8.31-1.76-.43,0-.48-.43-1-.36C218.34,377.47,217.58,377.41,217.88,378.39Zm18.41-.19c.5,0,1.41-1.9,0-1.72C236.06,376.71,235.46,378.12,236.29,378.2Zm-24.67.58c.12-1.08-1.38-2.31-2.12-1.36C210.27,377.83,210,379.29,211.62,378.78Zm20.51-.18c1.42.21,1.08-1.44.32-1.74A2.32,2.32,0,0,0,232.13,378.6Zm-5.91.76c.08-1,0-1.91-1.08-1.72C224.89,378.84,225.51,379.14,226.22,379.36Zm-5.92.75c.15-.66.75-.88.7-1.76-.47,0-.49-.42-1.05-.33C220.17,378.63,219.56,380.07,220.3,380.11Zm11.16.24a1.67,1.67,0,0,0-.74-2.41C230.81,378.9,230.47,380.31,231.46,380.35Zm7.64,2c-.59-1.13-.51-.74-.37-2.44-1.46-.06-1.19,1.58-2,2.09,0-.33-.27-.39-.36-.67.47-.93,1.44-1.34,1.73-2.46l-1.43,0c-.51.86-.14,2.56-1.68,2.46.45-.51.69-2.78-.4-2.79-.09,1.29-1,3.56-.31,4.53.06-.27,1.16-1.09,1.06-.34-.35.24-1.33,1.61-.68,1.72.14-.59.46.06,1,0,.6-.78-.08-2.24.33-2.44.5,1.23.71.54,1.75,1C237.76,381.79,238.23,382.19,239.1,382.38Zm-2.4,2.12c1.5.21,1.92-.66,2.45-1.43C237.83,382.4,237.4,383.65,236.7,384.5Zm5.87-3.18c.73-.24.45-2.28-.35-2.09C242.54,380.08,241,381.32,242.57,381.32Zm1.76,0c1.16.43,1.82-1.37,1-1.75C245.3,380.43,243.89,379.93,244.33,381.29Zm-12.15,2.53c-.37-.58-1.36-2.34-2.1-1.36.61.32.77,1.08.73,2.09-.62,0-3,.55-1.75,2.1.07-.44.39-.22.68,0,.3-2,2.39-2.23,3.82-3.14-.5-1.57.67-3-1.08-3.48a6.28,6.28,0,0,0,.73,3.48C232.41,382.79,232.83,383.55,232.18,383.82Zm-8.38-2.36c.7.14.3,1.37,1.4,1v-1C224.53,381.79,224,380.41,223.8,381.46Zm2.81.33c-.13-.47-.53-.65-.39-1.39h-1C225,382.06,226.41,381.76,226.61,381.79Zm-12.53,1.13c.1-.8,1.2-.62,1-1.72h-1.38C213.91,381.7,213.33,383,214.08,382.92Zm26.45,1.9a3.16,3.16,0,0,0-1.06-3.14A3.18,3.18,0,0,0,240.53,384.82Zm-11.15-2.36c-.71,0-1.4,0-2.08,0C226.93,383.92,229.76,383.91,229.38,382.46Zm13.23,2.32c1,0,.69-.6,1.39,0,0-.62.91-2,0-2.42C244.1,383.68,242.51,383.42,242.61,384.78Zm-18.1-1.24c-.11,1.41,2.39.55,2.42,0C226.3,382.85,225.3,383.36,224.51,383.54Zm-12.13,2.19c.79.1,1.29-.1,1.37-.71-.64,0-1.19-1.77-1.75-.67C212.53,384.63,211.92,384.89,212.38,385.73Zm3.46.34c-.5.52-.62,2.37.72,2-.05-2,.32-.09,1.05,0C218.56,387,216.49,386.66,215.84,386.07Zm2.8.31c-.21-.72.41-2.29-.36-2.43-.47,1.77-.59,1.07-2.1.7-.28,1,.49.91.36,1.74C217.78,385.71,217.23,386,218.64,386.38Zm6.59-.05a3.05,3.05,0,0,0,2.77-1.77C226.17,384.24,225.64,385.24,225.23,386.33Zm9.73-1.14c-1.53-.87-3.59-.63-3.82,1.42.86.69,1.8-.78,2.42-1.42.11.84.71,1.46,0,2.11.63,0,2.19-.76,1.36-1.09C233.83,387.13,234.91,386,235,385.19Zm-24.32,2.3c0-1.06,1.74-.36,1.74-1.4-.48-.11-.69-.48-1.41-.36C211,386.27,209.68,387.18,210.64,387.49Zm2.08.34c.92.14,2-1.24,1-1.75C213.67,386.91,212.56,386.73,212.72,387.83Zm7.66.61c1.46,1.28,2.57-1.92,1-2.43C221.32,387.08,220.68,387.6,220.38,388.44ZM219.3,386a5.72,5.72,0,0,0-1,2.79c1.22-.32,1.15.06,2.08-.73C219.94,387.52,220.5,385.89,219.3,386Zm24,2.22c.48-.48.55-1.71-.37-1.75a4.17,4.17,0,0,1-1.38,1.76c0-.87-.08-1.79-1.06-1.72-.22,1.38.37,2,.41,3.12-1.23-.52-3.24-1.08-3.48.74,1.43.36,1.33-.76,2.42-.73.32,1.14-1.69,1.76-.67,2.43,1.49-.73,4.58-3.64,4.16-.36,0-.65-.34-.81-1.06-.71-.12.86.65.76.35,1.73,1.07-1.46,1.91.71,3.16-.36-1-.42-2.61-2-1.78-3.11.06.9.65,1.22,1.06,1.74-.68-2.53,2.58-1.17,3.11-2.48-1.36-1.42-2.86,1.14-3.82.05a18.1,18.1,0,0,0,1.73-1.77c-1.51.28.26-.69-.73-.69C244.53,386.71,245,387.87,243.34,388.25Zm-15.64,1.53c-.25-1.06.36-1.27.33-2.11-.47.07-1.29-1.13-1.41-.31C227.28,387.77,226.38,389.39,227.7,389.78Zm8.33-2.15c.45.38,2.73.65,3.13,0C238.62,386.79,236.51,386.56,236,387.63Zm17.4.88c-1.63-.35-2,.58-2.78,1.07-.37-1-1.37-.42-.69-1.74-1.3-.21-1.33,0-2.1-1C248.26,390.41,251.93,390.08,253.43,388.51Zm-2.78-.32c.61.62,1.74-.05,1.37-1.4A1.27,1.27,0,0,0,250.65,388.19ZM207.2,390c.46-1.05.36-2.14-.73-2.45A1.69,1.69,0,0,0,207.2,390Zm23.31-.56c.08-1,1.43-.66,1.7-1.42-1,.29-.9-.47-1.74-.32C230.69,388.28,229.45,389.13,230.51,389.41Zm-19.5.52c.44.48,1.64.21,2.09.69.46-1.19,2.31-1,2.41-2.48A35,35,0,0,1,211,389.93Zm11.49.23c.21-.82,1.51-.58,1-2.08h-1.06C222.57,388.69,221.48,389.81,222.5,390.16Zm-5.92-.29c-.86-.61-2.56.32-2.41,1.77,1.78-.07,1.3-2.53,2.77-1.07a2.69,2.69,0,0,1,1-2.11c-.45,0-1,0-1.4,0C216.24,389.14,217.64,389.64,216.58,389.87Zm8.68.27c1.11.14,1.42-1.68.32-1.74C225.39,389.14,224.62,389.55,225.26,390.14Zm-21.2.18c0-.78-1.54-1.88-2.12-1C202.8,389.49,202.71,390.63,204.06,390.32Zm15.3.21c-.84-.33.67-1.52-1.06-1.36-.52,1.7.92,2.51.39,3.11,1-.31,2-2.4,1.35-3.12C219.58,389.37,220,390.5,219.36,390.53Zm-11.1,1.16c1.31.24,2.16-1.95,1-2.11C209.09,390.45,207.94,390.34,208.26,391.69ZM195,392.83c.15-1.28-.17-2.18-1.06-2.39C193.86,391.7,193.94,392.81,195,392.83Zm51.81-1.48c.42-.6,1.66-.44,1.7-1.38h-2.4A1.51,1.51,0,0,0,246.85,391.35Zm-57,1.2q.19-1.65-1.41-1.38A1.27,1.27,0,0,0,189.84,392.55Zm30.61.08a1.6,1.6,0,0,0,1.36-.71c-.68-.13-.28-1.35-1.41-1.05C220.4,391.46,220.4,392,220.45,392.63Zm5.18-1.45c.11.82.35,1.51,1.07,1.73-.29-1.06.58-1,.33-2.09A2,2,0,0,0,225.63,391.18Zm-9.38,2.17c.24-.8,1.16-.92,1.39-1.74C216.76,390.5,215.11,392.58,216.25,393.35Zm5.92-.74c-.41.5-.08,2.38,1.06,2.43C223.37,393.7,223,392.87,222.17,392.61Zm1.75,1.37c-.06-.69-.06-1.39-.06-2.09-.47,0-1.79-1.49-1.7,0,.09.42.4.2.67,0C222.72,393.09,223.45,393.39,223.92,394Zm-25.73-.1c1.4.34,1.8-2,.68-2.11C198.56,392.39,197.9,392.64,198.19,393.88Zm5.9-.42c0-.89,1.48-.37,1-1.76-.36,0-.69,0-1.05,0C203.9,391.93,203.27,393.39,204.09,393.46Zm5.92.65c.27-.46,2.08-2.18.32-2.43C210.53,392.47,209.47,393.42,210,394.11Zm2.08,0c.8.07,1.32-.1,1.38-.7-.43-.06-1,.07-1-.35.39-.07.36-.56.33-1C211.16,391.43,211.69,393.7,212.09,394.09Zm35.46-1c0-.48,0-.93,0-1.4-.51.06-1.25-.12-1.38.39C247.06,391.93,246.44,393.39,247.55,393.09Zm-29.88,2.68c-.26-1.26.72-1.35.67-2.43-1.62.31.46-.91-.7-1C217,393,216.49,395.19,217.67,395.77Zm-9.76-1.3c1.29.23,1.54-.58,1.39-1.76h-1C208.41,393.57,207.63,393.51,207.91,394.47Zm32.36-.28a1.67,1.67,0,0,0,1.72-1.75h-1.05C240.56,392.91,240.6,393.74,240.27,394.19Zm-37.21-.72c-.06-.76-1.52-.13-2.1-.33C200.8,394.59,203,395,203.06,393.47Zm15.31,1.59c.68.74,1.51,0,1.72-.7-.27-.07-.67,0-.67-.33,0-.49.53-.61.67-1.06C218.92,393.09,218.72,394.13,218.37,395.06Zm14.94-.12c.29-.26,1.55-2.13,0-2.08C233.4,393.47,232.3,394.6,233.31,394.94Zm19.14.88c-.12-.79-.4-1.5-1.08-1.73-.24,2,1.29,2.16,0,3.48,2.18.55,3.06-1.16,4.19.31-.36-1.17,1-2.37-.05-3.14a21.3,21.3,0,0,1-1.36,1.77c-.9-.73-1.37-4.08-1.76-3.47C252.52,393.69,253.35,395.34,252.45,395.82Zm1.75-.39c1.05.35,1.44-1.69,1-1.73C254.89,394.32,253.81,394.16,254.2,395.43Zm2.09-.69a1.58,1.58,0,0,1,1,.35c.6-.47.09-2,.68-2.45C256.67,392.59,256.87,394.07,256.29,394.74Zm-60.52.88a1.28,1.28,0,0,0-.73-2.06C194.46,394.12,195.26,395.11,195.77,395.62Zm53.53-2.55c-.27,1.32.74,1.33,1.39,1.71-.47-.78.9-1.31,0-1.38C250.42,394.42,250.16,392.59,249.3,393.07Zm9.4,2a1.83,1.83,0,0,1,1,.34c-.14-.87,1.59-1.61.69-2.07C259.92,394,259,394.19,258.7,395.06Zm-54.59,1.54c.7-.55,1-2,0-2.44C203.75,394.78,202.79,396.31,204.11,396.6Zm7.66-1.14c-.12.49-.5.7-.35,1.42,1.09.14,1-.88,1.38-1.42-1.45.31-.67-1.64-2.1-1.35-.87,1-1.68,3.13,0,3.83.16-1.34.48-1.64-.37-2.43C211.16,396,211.65,394.59,211.77,395.46Zm2.07.35c1,0,1.27-.78,1.7-1.41a1.71,1.71,0,0,1-1-.33C214.18,394.52,214.19,395.34,213.84,395.81Zm-23.28-.15a2.81,2.81,0,0,0,2-.71C191.61,394.51,190.91,394.68,190.56,395.66Zm30.92.44c-.06-.68.41-.77.36-1.41-.46,0-.51-.44-1-.33C220.76,395.21,220.75,396.05,221.48,396.1Zm16.71-.5c.06-.91-.14-1.49-1.05-1.38C237.05,395.15,237.26,395.71,238.19,395.6Zm-10.08,1.47c-.24-.95.72-.7.72-1.39-.69.12-.72-.47-1.1-.69C227.61,395.77,227,396.88,228.11,397.07ZM192,396.35c.17.67.13,1.47,1.05,1.38-.4-.89,1-1.64,0-2.07C192.86,396.15,192.24,396.05,192,396.35Zm2.8,1.72c-.29-1.09,1-.68.65-1.76-.42,0-.32-.6-.67-.69C193.91,396.42,193.32,397.4,194.75,398.07Zm10.43-.81c1.06.14,1.37-1.68.32-1.7C205.65,396.37,204.89,396.31,205.18,397.26Zm55.6-.12c-.13-1.09,1.09-.79.7-2.1C260.23,394.86,259.47,396.88,260.78,397.14Zm-26,.2c1.06.15,1-.87,1.37-1.39a1.44,1.44,0,0,1-1-.33A2.22,2.22,0,0,0,234.73,397.34Zm14.57-1.5c-.31,1.18,1.12.53,1.76.7C251.3,395.33,249.83,395.28,249.3,395.84Zm7.34,1.33c1.19,0,1.28-1,1.7-1.75C257.1,395.34,256,396.43,256.64,397.17Zm-55.29,1.2c.25-1.08-.35-1.27-.35-2.1-.47,0-.95,0-1.41,0C199.72,397.42,200.65,397.77,201.35,398.37Zm14.93-.14c.5-.58,1.24-.89,1.05-2.11-.36,0-.72,0-1.05,0C216,396.37,215.54,398.08,216.28,398.23Zm7.7-.77c-.18-.66-.18-1.51-1.09-1.36C222.28,396.67,223,397.45,224,397.46Zm-27.84,2.32c.16-.49,1.67-2.3,0-2.44C195.79,397.65,195.4,399.58,196.14,399.78Zm50.75-1.13a3.23,3.23,0,0,0,2.1-1.41C247.87,396.67,246.75,397.07,246.89,398.65Zm4.2,1.7c.71-.2,2.29.39,2.41-.35C253.06,399.5,251.09,399.36,251.09,400.35Zm.69-2.43c-.91.21-1.27-.15-1.08-1-1.47.89-2.59,1.82-2,3.49.57-.48.41-1.66,1.76-1.39a1.72,1.72,0,0,1-.38,1C251.24,399.93,251.84,399.28,251.78,397.92Zm-30.25,1.3c-.08-.51.08-1.27-.36-1.4,0,.22-.28.42-.35,0,0-.21,0-.42-.37-.34C220,398.49,220.3,399.07,221.53,399.22Zm22.63,1.89a.91.91,0,0,1-.71-1,1.92,1.92,0,0,0,1.37-.38c.09.55-.1,1.28.36,1.4.25-.82,1.15-.94,1.39-1.75-1.66.59-1.44,0-1.41-1.75-1.53.52-1,2.42-2.77,1.09a6.67,6.67,0,0,0,.37,3.1C243.08,400.79,244,401.7,244.16,401.11Zm11.8-1.83c1.32-1.4,1.54,0,3.13-.73-.91-.14-1.06-1.06-2.11-1.06C256.69,398.14,255.56,398,256,399.28Zm-56.68-.21a1.73,1.73,0,0,1-1.05-.35c.12,1.15.32,2.27,1.4,2.43-.21-.84.4-2.52-.35-2.76Zm56,1.24c.06-1-.12-1.76-.73-2.07C254,398.77,253.93,400.65,255.28,400.31Zm-44.86.75c1.2.53,1.62-2.35.35-2.08C210.77,399.78,210.16,400,210.42,401.06Zm-1.4.71c1.78.12.91-2.28,0-2.46A2.9,2.9,0,0,0,209,401.77Zm6.94-1.11c1,1.57-.62,1.66-1.35,2.46,2.72-.65,1.88,2.28,4.51,1.67-.26,1,.53.92.37,1.77,1.53-.06,2.17.83,3.16,1.35-2.59-2.92-3-6.23-5.65-8.63C217.11,400.18,216.88,400.74,216,400.66Zm-1.73,1.4c1.11.17,1.13-.75,1.05-1.75-.35,0-.71,0-1.05,0Zm7.69,2.37c-1-.63-2.56-4.06-2.47-3.44C219.88,402.35,221.05,404.74,221.92,404.43Zm3.53,4.14c.4-1.18-1.38-1.82-.4-2.41.85,1.27.64,3.74,1.76,3.11a15,15,0,0,0-4.89-7.63c-.34,1.16,1.92,1.51,1,2.1-1.29-.68-1.75-2.22-2.8-3.09C221.45,403.72,223.74,405.85,225.45,408.57ZM241,403.22c1-.86.29-1.72.65-2.79A1.67,1.67,0,0,0,241,403.22Zm-36.51,0c1.22.05,1.78-.51,1.71-1.75C205,401.42,205,402.48,204.53,403.19Zm54.94-.47c1.08.11,1.4-1.7.33-1.76A2.24,2.24,0,0,0,259.47,402.72Zm-29.55,3.41c1.79-.36,1.61-3.35.7-4.57C230.08,402.79,230.21,404.66,229.92,406.13Zm13.55-2.94c.53-.62,2-.29,2.08-1.41C244.75,400.84,242.63,402.66,243.47,403.19Zm-13.9,1.19c.35-1.35-.65-3.06-1.4-2.08C228.87,402.74,228.58,404.25,229.57,404.38Zm-23.64.56c1.23.12,1.95-2.2.68-2.45A4.85,4.85,0,0,0,205.93,404.94Zm32-2.38c-.19,1.34,2.31.47,2.11-.37C238.93,402,238.73,402.56,237.89,402.56Zm41.06.68c.35,0,.69,0,1,0-.1-.6.32-1.74-.71-1.38C279.18,402.32,278.79,402.53,279,403.24Zm-78.25,0c-.29,1.32,1.66.43,2.45.68C203.27,402.32,201.51,403,200.7,403.22Zm31.3,1.13a1.91,1.91,0,0,1,1.4.33c.06-1,0-1.89-1.06-1.73C232.23,403.44,231.86,403.63,232,404.35Zm-20.13,1.21c2,.36,1.34-1.81.29-2.08C212.19,404.3,211.6,404.5,211.87,405.56Zm52.8-.47c.11-.53,1.38-1.62.36-2.07C264.72,403.68,263.19,404.63,264.67,405.09Zm-61.15,1.63c.42-.74,2.49-2.62.32-2.82C203.72,404.62,202.67,406.17,203.52,406.72ZM234.43,404c-.2,1.1.68,1.1,0,1.77a1.46,1.46,0,0,1,1,.34c.59-.57.11-1.87-.32-2.44C235.07,403.9,234.86,404,234.43,404Zm7.68,1.7c-.35-.83-.12-2.22-1.41-2.09C240.53,404.9,241.46,405.15,242.11,405.66Zm2.76-.39a1.88,1.88,0,0,0-1.74-1.72C243.08,404.75,244.35,404.63,244.87,405.27Zm3.84.31c-.2-.61.39-2-.36-2.08C247.87,404,247.74,405.58,248.71,405.58Zm-48.36.11c.82.55,2.06-.54,2.8-1.09C201.94,404.72,200.12,404.18,200.35,405.69Zm60.19-.21c.12-.76,1.89,0,1.7-1.05C261.44,403.27,259.71,405.09,260.54,405.48Zm19.46.18c1-.08,1.48-.6,1.4-1.74A1.38,1.38,0,0,0,280,405.66Zm-66.42.58c.91.1,1.13-.47,1-1.39C213.7,404.74,213.47,405.33,213.58,406.24Zm14.59-1.18a1.77,1.77,0,0,0,.75,1.75c.17-.74.82-1,.65-2.09C228.92,404.63,228.83,405.1,228.17,405.06Zm2.81,1.38c.48.06.56.57,1,.71.51-.73,1.2-2.34-.35-2.43-.24,1,.35,1.24.35,2.07C231.53,407,231.15,405.44,231,406.44Zm-32.68,1.67c.53-.5,1.21-.88,1.37-1.74-.44,0-.47-.45-1-.34C198.56,406.6,197.48,407.84,198.3,408.11ZM264,406.16c.15.81.39,1.5,1.09,1.72.16-.51-.41-1.8.33-1.75.11.43,1.1,1.65,1.38.7-.62,0-.19-1.17-.73-1.39C265,405.27,265.32,406.5,264,406.16Zm10.47,1.3c.26-.25.9-2.44-.35-2.1C274.23,406.42,273.2,407.15,274.46,407.46Zm-64.33,1.24c-.08-1,.29-2.38-.72-2.44C208.92,406.83,208.71,409.05,210.13,408.7Zm-2.08,0c-.05-.58,1.09-2.24-.36-2.11C207.2,407.1,207.1,408.74,208.05,408.74Zm25.73.12c.08-.51.76-.42,1-.75,0-1-.83-1.24-1.4-1.69C233.64,407.15,233,408.7,233.78,408.86Zm46.59.63c.3-.46,1.85-1.65.33-2.77-.68.23.26,2-1,1.72,0-1.05,0-2.11-1.07-2.07C277.74,408,279.27,408.87,280.37,409.49Zm-88.66-.24c1.15.39,1.85-1.41,1-1.79C192.44,408.09,191.3,407.94,191.71,409.25Zm7.61-1.49c0,.64.41.77.38,1.4,1,0,1-.88,1.06-1.77A2.12,2.12,0,0,0,199.32,407.76Zm29.27,2.18c.28-1.34-.61-1.5-1.09-2.09-.16,1.55.81,2.36.4,3.83,1.42-.28.68,1.68,2.08,1.38.21-.58,1.35-1.89.32-2.43.08.86-.75.83-1,1.4-.43-1.28,1.58-1.89.68-2.46-.09.33-.9,1.54-1,.7.9-.28,1.42-2.7,1-3.12C228.61,407.84,229.55,409.45,228.59,409.94Zm6.93-1.49c.48.12.59.61,1.07.72.52-.54.59-2.37-.73-2.07C235.94,407.76,235.46,407.85,235.52,408.45Zm43.15,1.41c-.09-1.33-.51-2.29-1.78-2.43C276.6,409.09,277.74,410.55,278.67,409.86Zm3.1-1.79c.27.09.39.31.35.71.9-.39,2.34-.25,2.78-1.08C283.72,407.58,282.37,407,281.77,408.07Zm-89,2.19c1.23.38,2.08-1.33,1.37-1.76C193.8,409.19,192.6,409.09,192.77,410.26Zm62.23-.89c.89.08.89-.74,1-1.41l-1,0Zm6.28.27c1.37.53,2.22-1.19,1.33-1.74C262.29,408.61,261.11,408.45,261.28,409.64Zm-20.19-.15c-.35-.39-1.91-1.29-2.44-.33C239.28,409.25,240.39,410.63,241.09,409.49Zm34.08.73c1.09-.23,1.08.65,1.76,0-.17-1-1.21-1.11-1.76-1.76Zm10.1.63c-.07-1.05,1.32-2.16,0-2.46C284.56,408.94,284.26,410.33,285.27,410.85Zm-90,6c1.1.23.69-1,1.75-.72.09.48.59.57.7,1a1.78,1.78,0,0,1-1,1.07c-.22-.52.34-1.81-.37-1.75-.3.52-.51,1.12-1.39,1.06.19-1.62-.58-2.23-1.08-3.11-.21,1.49-.21.69-1.38,0-.32,1.59.8,3.11,1.38,1.71a6.31,6.31,0,0,1-.65,2.1c.95.37,1.64-.86,2.1,1,1.73-.2,2,.75,3.11,0a3.09,3.09,0,0,1,0-3.47,1.72,1.72,0,0,0,1.77.68c-.39-1.75-2.16-1.74-.39-3.11-1,0-1.77,1-2.42.36-.45.81.92,1.29,0,1.37-.37-.05-.53-.37-.71-.67.59-1.16,2-1.51,2.78-2.46-1.15.36-.56-1.07-.71-1.73H198c-.74,1.13.06.66.39,1.05,0,1.08-.92,1.18-1.75,1.39a1.57,1.57,0,0,0-.35-1c.35,0,.7,0,1,0a2,2,0,0,0-1.05-2.07c.32,1.65-1.41,3.13,0,3.84-1.07.41.07.87-.66,1.39-.69-.6-.06-2.54-1.44-2.42,0,.52.15,1.26-.33,1.39,0-.19-.27-.38-.36,0C194.38,415.28,196.13,414.84,195.23,416.85Zm39.63-4.52c1.19-.16,2.28-1.45,1-2.11a2.54,2.54,0,0,1-.67,1.06c-.27-1.07.34-1.29.31-2.09h-1.38C233.64,411,235.65,411.34,234.86,412.33Zm2.79,1.35c.27-1.69,1.5-.67,2.43-.34,0-1.39-.21-2,1-1.42-.57-1.54-3-1.1-3.52-2.76,0,.28-.28.41-.65.35-.14,1.66,1.88,1.11,2.43,2.07-.08.48-.76.41-1,.7-.19-1-.64-.18-1.06-1.36-.34.79-1.17,1.12-1,2.44,1.12.28.47-1.15,1.4-1.07C238,412.94,236.6,413.48,237.65,413.68Zm11.45-2.52c-.07-.65,1.11-2.23.31-1.39a28.34,28.34,0,0,0-2.35,7.31,3.16,3.16,0,0,1,.68-1.06c0,2.91-1.27,4.46.37,1,.84-1.75,2.31-4.31,2-7,.54,0,.77-1.78.33-.69C249.83,409.8,249.75,410.75,249.1,411.16Zm-49,.78c.71.07.8-.41,1.42-.38-.21-.51.38-1.79-.34-1.72C200.8,410.57,200,410.87,200.05,411.94Zm11.85-.12c.26-1.66-.74-2.05-2.1-2.05A2.61,2.61,0,0,0,211.9,411.82Zm-23,.57c-.06-1.35,1.79-.8,1.73-2.12C189.14,409.82,187.93,411.46,188.94,412.39Zm36.19-.35c.1-.6,1.8-1.36.64-2.08,0,.27,0,.68-.31.68-.07-.41-.12-.78-.73-.66C224.51,410.87,224.43,411.4,225.13,412Zm56.64-1.53c.42.07.23.4,0,.69a2.37,2.37,0,0,0,2-1.4A1.43,1.43,0,0,0,281.77,410.51ZM279,411.94c.5-.12.68-.5,1.4-.38.23-1.16-.72-1.13-1.07-1.7-.64.65,0,.85,0,1.72C279,411.56,278.48,411.76,279,411.94Zm-75.08,1c1,.35,2.2-2,.65-2.07C204.39,411.58,203.72,411.86,203.93,412.94Zm5.57.3c.18-1.25.66-2.07-1.09-2.42C208.53,411.86,208.64,412.91,209.5,413.24Zm50-.8c.3-.23.92-2.4-.34-2.08C259.37,411,258.77,412.42,259.53,412.44Zm-67.09,1.28c0-1.28.22-2.8-1.43-2.42C191.43,412.2,191.22,413.7,192.44,413.72Zm28.88.11c-.92.1-.3-1.36-1.41-1,.22.9-.14,1.25-1,1.06.76-.52.26-3.82-.71-2.46.75,1.19-2,1.24-.34,2.81-.59,0-1.17,0-1.77,0,.21.89-.11,1.24-1,1,.17.52-.37,1.8.37,1.72.34-2.37,3.56-1.72,5.9-2.82.06.25,0,.68.34.7.26-.81-.43-2.35-.7-1.4C221.17,413.5,221.34,413.53,221.32,413.83Zm-1.76-1.39c1.46-.23,2,.68,2.41-.35.07.5-.11,1.3.37,1.39,0-.19.3-.41.37,0,.06.26,0,.67.33.67-.17-1.67.44-.38,1.06-1,0-.68,0-1.39,0-2.07h-.7c-1-.17.28,1.87-.66,1.72C222.57,410.64,220,410.92,219.56,412.44Zm12.51,1.28c.06-.6,1.14-2.85-.36-2.75C231.37,411.86,231.14,413.29,232.07,413.72Zm44.18-.36c.38-1.35,1-1.41,1-2.45C276.1,410.87,274.72,412.83,276.25,413.36Zm11.81-1.84c.87-.3,1.59,1.33,2.09.34-.71-.15-.7-.95-1.4-1.05C288.75,411.26,288.13,411.12,288.06,411.52Zm-87.6,1.1a.89.89,0,0,0,.71,1c0-.59.92-.2,1-.69C201.53,412.65,201.17,411.86,200.46,412.62Zm43.85,4.84c-.58-.61-.21-2.15-1.1-2.42a26.7,26.7,0,0,1,1.14,10.06c.56-.25-.08-1.71,1-1.41-.46,1.24-.15,5.82,0,2.11.91-1.43,0-3.13.69-4.19.94-.26-.24,1.65.67,1.4.16-.82.78-2.94.35-3.16a2.75,2.75,0,0,1-.69,1.06c.74-2.61-.39-5.32-1.78-5.54-.3-1.22.5-1.34.31-2.46-1,.43-1.28-1.63-1.73-.67C243.41,413.9,244.79,416.23,244.31,417.46Zm17.31-4.34a1.64,1.64,0,0,0,1.39-1.41C261.84,411.58,261,412.47,261.62,413.12Zm-46.2,1.8c.46-.46.64-2.44-.38-2.44C214.57,413,214.37,414.93,215.42,414.92Zm18.41.2c.78-.56.57-1.88,0-2.79C233.28,413.07,232.66,414.51,233.83,415.12Zm-10.41-.26c1,.26.87-.51,1.71-.35-.2-.52.39-1.82-.33-1.76C224.57,413.7,223.34,413.64,223.42,414.86Zm18.77-.52c.05-1.13-.43-1.65-1.42-1.72C240.5,414,241.54,414,242.19,414.34Zm38.58.36c.19-.47,1.57-2.41,0-2.43C280.41,412.88,279.43,414.41,280.77,414.7ZM230,414.43c.65-.07.8.43,1.38.35a1.69,1.69,0,0,0-.7-1.74C230.69,413.74,229.74,413.5,230,414.43Zm29.92.11,1.05,0c-.11-.62.35-1.76-.75-1.4C260.13,413.59,259.74,413.81,259.93,414.54Zm-20.87,1.57c.42-.65,1.45-2.47-.38-2.43C238.91,414.4,238.26,416,239.06,416.11Zm19.8-.87c.33-1.17-1.12-2.33-1.71-1.37C257.62,414.4,258,415.06,258.86,415.24Zm-22.25.89c.13-1,2-.33,1.41-2.1C236.43,413.44,236.28,416,236.61,416.13Zm28.56-.24c.05-.29.24-.42.67-.36-.19-.51.39-1.81-.37-1.75C265.22,414.15,264.12,415.39,265.17,415.89ZM214.37,417c.07-1.37-.39-2.16-1.41-2.44C213,415.89,213.15,417,214.37,417Zm7,.64c1.66-.05,1.59-2.38.66-3.14A7.35,7.35,0,0,1,221.33,417.66ZM181.68,417c-.18-.65.47-2.09-.72-1.71C180.4,415.74,180.51,417.22,181.68,417Zm60.51-.88c0-1.08-.88-1.17-1.76-1.36C240,416.29,241.79,415.45,242.19,416.07Zm-13.56.81a1.55,1.55,0,0,0,1.38-1.39,1.68,1.68,0,0,1-1.06-.34A2.38,2.38,0,0,0,228.63,416.88Zm-41.73.73c0,.57,0,1.15,0,1.73,1.43-.37.4-2.39,2.42-1.4-.2-.72.59-2.45-.7-2.08C188.28,417.41,187.91,416.84,186.9,417.61Zm66.79-.92c1.1.07,1.65-.44,1.7-1.41C254.05,415,254.05,416,253.69,416.69Zm33.73,0c.89-.12,1.15-.92,1.36-1.74C287.82,415.12,286.74,416,287.42,416.72Zm-74.07.3c-.64-.3-.49-1.39-1.75-1C211.44,416.88,212.83,418,213.35,417Zm47.63.29c-.07-.65.4-.77.35-1.41-.46,0-.47-.43-1.08-.31A1.73,1.73,0,0,0,261,417.31Zm13.93,1.62a1.62,1.62,0,0,0,1-.37c.1.27,0,.69.35.69.47-2,.08-3.35-1.75-3.79.1,1.92-.43.19-1.4.34.05,1.3.41,1,0,2.1C274.37,417.24,274.27,418.2,274.91,418.93Zm-85.19-.3c1-.09,1.46-.62,1.34-1.75h-1A2.28,2.28,0,0,0,189.72,418.63Zm11.11.25c.34-.65-1-1.15,0-1.4.3.8,2.06,2.1,2.44.69a8.48,8.48,0,0,0-2.81-1.38C200.32,417.57,199.69,418.68,200.83,418.88Zm12.17-.46c-.41-.9-2.52-1.85-3.17-1.36A2.93,2.93,0,0,0,213,418.42Zm11.82-.1c1.08.16,1-.89,1.36-1.41-.41,0-.44-.44-1-.33C225.3,417.41,224.53,417.35,224.82,418.32Zm15.31-.14c.14-1,1.49-.82,1.71-1.73h-1.75C239.89,416.66,239.33,418.11,240.13,418.18Zm-40.68,1.76c-.13-1.06.36-2.72-.73-2.78C197.87,418.14,198.79,419.43,199.45,419.94Zm17.73-.51c.38-.36,1.29-1.91.33-2.43-.07.41-.4.19-.7,0C217,417.71,216.4,419.27,217.18,419.43Zm55.62-.84a1.62,1.62,0,0,0-1.07-2.07C271.77,417.54,271.73,418.65,272.8,418.59Zm13.23-.45c.52-.53.49-2-.7-1.74C285.27,417.25,285.27,418.08,286,418.14Zm-105.38,1.6c1.38.56,2.65-1.92,1-2.08A7.92,7.92,0,0,0,180.65,419.74Zm9.78,1.68c1.65.09,1.22-3.19,2.75-2.13-.18-.63-.18-1.44-.7-1.74.29,1.33-.71,1.36-1.39,1.76-.18-.49,1.36-.87.34-1.06C190.7,419.4,189.81,419.76,190.43,421.42Zm37.18-3.12c.56,0,.2.95.7,1,.3-.65,1.86-1.6.32-2.07C228.73,418,227.64,417.65,227.61,418.3Zm-13.21,1.5c.56-.53,1.8-1.3,1-2.09h-1C214.81,418.65,213.72,419.76,214.4,419.8Zm10.1-.43c0-1,0-1.9-1.08-1.76C223.37,418.65,223.39,419.55,224.5,419.37Zm42.06.33c-.05-1.11.32-2.68-1-2.45C265.43,418.5,265.75,419.34,266.56,419.7Zm-56.67.14c-.93-.08.48-.6,0-1.4-1.09,0-2.49,1.68-1,2.1,0-.42.12-.83.71-.7C209.55,420,209.83,420.23,209.89,419.84ZM268,419c-.59,1.33,0-1.36-.69-1a6.36,6.36,0,0,1-1.35,3.83c-.07-.34-.48-.26-.35.35C267.24,422.16,268.77,420.26,268,419Zm-.3,2.8c1.27.09,2-.3,2.06-1.41C268.21,420.05,268,421,267.65,421.77Zm17-2.59c.07-.65-.39-.76-.36-1.39-.87.45-1.08-.18-1.37.38C283.8,418.17,283.28,419.64,284.64,419.18Zm-73.37,1.34c.12-.81,1.21-.66,1.06-1.76C211,418.25,210.38,420.07,211.27,420.52Zm48.33-2.16c-.9.52,0,2.77-1.69,2.46.15-.74.83-1,.64-2.1a1.78,1.78,0,0,1-1-.32c0,.5.12,1.26-.33,1.37.15-1.11-.88-1-1.4-1.35.4,2.16.64,1.78-.34,3.44,1.4.44.86-1,1.76-1,.19.61-.41,2,.34,2.09.68-1.72,1.11.64,1.74,1,.16-.46.52-.66.36-1.37-.81.1-1.31-.07-1.41-.7C258.6,420.82,260.86,419.84,259.6,418.36Zm3.84,2.73c-.18,0-.4,0-.33-.33a20.05,20.05,0,0,0,1-2.44C262.12,418.14,262.23,421.77,263.44,421.09Zm-70.25,1c1.54,0,1.06-2.23.37-2.78C193.62,420.41,192.92,420.77,193.19,422.07ZM269.7,419c0,1.06,2.33,1.48,2.43.32C271.23,418.81,270.76,418.47,269.7,419Zm-92.47,4.62c1.84-.27,1.74-2.4,2.38-3.85C178.87,421.07,177.49,421.77,177.23,423.59Zm36.13-2a2.17,2.17,0,0,0,.36-1.75,1.47,1.47,0,0,1-1-.32c-1,.52.6,1.4-.35,1.73,0-.19-.27-.39-.37,0C212.44,421.32,212.65,421.7,213.36,421.55Zm52.16-1.16c-.93.27.27-1.63-.73-1.38-.27.73-1,1-1,2.08a5.89,5.89,0,0,0,1.05,1.41C265.47,421.31,263.82,420.35,265.52,420.39Zm-90.37,1.85c1.6.06,1.82-1.15,2.4-2.12A2.74,2.74,0,0,0,175.15,422.24Zm20.47-.2c.31-.24.95-2.4-.34-2.05C194.68,420.52,195.14,421.6,195.62,422Zm2.43-.72c.19-.88-1.2-1.92-1.72-1C197,420.7,197.19,422.24,198.05,421.32Zm26.14.48a1.66,1.66,0,0,1,1-1c-.12.79.09,1.28.68,1.36.23-1.4,1.05-.61,1.76-1.05,0-.34,0-.71,0-1C226.32,421.14,223.2,418.42,224.19,421.8Zm27.42-.24a7.19,7.19,0,0,0,1-2.09C251.34,419,250.83,421.09,251.61,421.56Zm-37.21-1c-.06.62.42.75.38,1.34,1.28.35,1.36-1.69.32-1.72C215,420.41,214.82,420.58,214.4,420.52Zm44.88,1c1.7.27,2-.83,2.42-1.77C260.08,419.52,260.18,421,259.28,421.5Zm13.21-.8c.82,0,1.62,0,2.44,0C275.1,419,272.49,419.61,272.49,420.7Zm-101.87,2.61c1.25.08,2.25-2.22,1-2.43C171.29,421.7,170.45,422,170.62,423.31Zm10.41-.77c.36-.72,1.54-.58,1.38-1.76C181.5,420.72,180,421.77,181,422.54Zm37.58,0c-.05-.85.51-1.08.68-1.76-.49,0-.49-.43-1.06-.34C217.67,421,218.09,422.08,218.61,422.55Zm-51.12.77c0-1,0-2.09-1.07-2.05C166.42,422.32,166.2,423.57,167.49,423.32Zm42.06-1.05c.61-.19,1.43-.19,1.72-.71-.63-.13-.63-1-1.72-.68Zm21.91-.19A1.31,1.31,0,0,0,230,420.7C229.91,421.8,230.38,422.26,231.46,422.08Zm-47.62,3.2c1.11.3,1.06-.55,1.73-.72-.27-1.31-.18-3.06-1.77-3.09C184.48,424,184.76,422.94,183.84,425.28Zm15.27-3.58c0,1,.8,1.27,1.42,1.69.39-1.09,0-.78-.05-2.07C199.85,421.25,199.73,421.72,199.11,421.7Zm37.92.68h1.05c0-.87.65-1.11-.38-1.41C237.73,421.7,236.74,421.44,237,422.38Zm11.48.6c-.21-.72.56-2.4-.71-2.08C248,421.61,247.27,423.32,248.51,423Zm-55.65,2.92c.17-.89,1.06-1,1.06-2.1-1.38.13-.67-1.88-1.74-2.06,0,.21-.06.41-.36.34s-.41,0-.35.34C193.07,423.21,192.32,424.42,192.86,425.9Zm79-3.82a7.63,7.63,0,0,0-.7,2.1c1.53-.05,1.64-2.18,2.76-.72.49-.48.67-2.44-.36-2.44-.09.42-.38.21-.67,0C273.11,422.24,272.53,422.83,271.82,422.08Zm-44.18,1.78c.75-.21.44-2.25-.34-2.09C227,422,226.38,424.2,227.64,423.86Zm22.27-2.3c-2.38,2,1.11,2.58,0,0Zm-52.84,3.27c.53-.63.46-2.57-.74-2.45C195.61,423.15,196.52,424.27,197.07,424.83ZM251.29,423c0,.44,0,.91,0,1.4,1.29-.36.93-.77,2.42-.38.09-1-.11-1.77-.71-2.12C253.38,423.86,251.69,422.19,251.29,423Zm-72,1.31a1.34,1.34,0,0,0,1.39-1.4C179.61,422.72,179.13,423.2,179.33,424.27Zm8.68.62c.13-.65.73-.86.69-1.74-.45,0-.49-.43-1.06-.32C187.18,423.28,187.07,424.89,188,424.89Zm21.25-.52c0-.69.9-.46.67-1.4a1.44,1.44,0,0,1-1-.32C208.74,423.45,208.12,424.14,209.26,424.37Zm19.79-1.22c.5,0,1.46,1.28,1.76.34C230.41,422.91,229.43,421.77,229.05,423.15Zm40,2.07c0-1.32-1-1.56-1.75-2.07.54-.49,2.94.59,3.12-1.07-2,.58-3.78-.76-4.16,1.43C268.26,423,267.19,425.64,269.05,425.22Zm-38.24-.35c1.08,0,2.33-1.8,1-2.09C232,424,230.62,423.63,230.81,424.87Zm32-.27c1.2.53,1.64-2.34.33-2.09C262.72,422.91,262.74,423.74,262.79,424.6Zm12.17-.12c.58-.3.75-1.09.67-2.1-.32,0-.68,0-1,0C275.11,423.46,273.56,424.71,275,424.48Zm-68.14,1.66c.46-.5.64-2.45-.38-2.45C206.26,424.46,205.62,426,206.82,426.14Zm57.7-1.22c1,.4,1.5-1.47.69-1.76C265.08,423.84,264.25,423.81,264.52,424.92Zm-9,.09c.65-.09.77.37,1.39.33-.27-1.07,1-.67.67-1.75A2.44,2.44,0,0,0,255.48,425ZM284,424.4c.74.73,1.79,0,1.77-1C284.64,423.2,284.31,423.8,284,424.4Zm-84.12,2.48c.61-.62.48-2.55-.69-2.42C199.2,425.44,198.87,426.85,199.85,426.88Zm46.27-.74c1.58,0,1.26-1.66,1-2.1C247,424.89,245.78,424.79,246.12,426.14Zm5.9-.42c.7,0,1.38,0,2.09,0a1.38,1.38,0,0,1,.33-1,2.21,2.21,0,0,1-1.74-.34C252.52,424.85,252.18,425.21,252,425.72Zm27.14,1.16c1.29,0,1-1.56,1-2.79C278.79,424.5,278.78,425.48,279.16,426.88Zm-100.49.21c1.28.23.83-1.25,1.35-1.78C179,425.39,178.57,425.93,178.67,427.09Zm35.42-1c.92,0,1.81-.06,1.75-1A1.5,1.5,0,0,0,214.09,426.05Zm2.47.69h1a1.89,1.89,0,0,1,.34-1c-.67.11-.69-.48-1-.68C217,425.82,216.25,425.76,216.56,426.74Zm-46.25,1.1a1.4,1.4,0,0,1,1,.36c.36-.64,1.32-2.16,0-2.46C171.22,426.67,170.47,427,170.31,427.84Zm89.72-1.5A1.27,1.27,0,0,0,261.4,425C260.31,424.8,259.83,425.26,260,426.34Zm-78.6,0c.1,1.53,2.74.42,2.77-.35A6.58,6.58,0,0,0,181.43,426.34Zm44.87-.72c.08.65-.42.76-.37,1.38.81.08,2-1.19,1.41-1.4C227.18,426.2,226.87,425.54,226.3,425.62Zm1.4,1.71c.47.07.56.58,1,.7-.2-.71.51-2.43-.73-2.1C228.11,426.61,227.64,426.7,227.7,427.33Zm7.64.3c1.09.11,1.09-.77,1-1.76h-1Zm41-.73c.07-.71,1.3-.33,1.37-1C277.1,424.8,275.14,426.16,276.37,426.9Zm-72.65,1c-.1-1,2.1.26,2-.7C205.32,426,202.64,426.92,203.72,427.9Zm53.19-1.52c-.15,1.67,1.95.94,2.41.32C258.44,426.2,257.93,425.87,256.91,426.38Zm8,.29c.73.09.08,1.54,1.07,1.38-.16-1.07.87-1.78-.4-2.09C265.56,426.41,265,426.27,264.89,426.67ZM210,428.55c1,0,1-.86,1-1.76h-1C210,427.38,210,427.93,210,428.55Zm41.38-.73c1,0,1.29-.82,1.72-1.41C251.72,426.16,251.71,427.17,251.34,427.82Zm-69.19.27c.77-.27,2.71.61,2.41-.71l-2.41,0Zm32.33.77c1.06.41,1.48-1.48.68-1.76C214.78,427.52,214.18,427.74,214.48,428.86ZM187.07,435c-1.26-.17-4,1.05-2.44-.32-1.2-.33-4.23-.62-4.88-.31,4.81,2.67,12,.56,14.6-.12-1.71-.26-5.06-.67-6.23-.29.58.32,1.72.1,2.06.65-4,.5-3.67-2.35-6.28-2.36.37,0,.3.44-.35.38-.06-.69.41-.79.35-1.43a18.18,18.18,0,0,0-5.61-3.07C181.25,430.39,184,432.9,187.07,435Zm49-6.34c1.38.35,2.76-1,1.35-1.39C237.3,428.05,236.34,428.05,236.05,428.65Zm36.5,0h1.76c.06-.44,1-1.73.33-1.75C274.15,427.72,272.91,427.74,272.55,428.68ZM205.45,430c.56-.5,1.8-1.28,1-2.08C205.45,427.7,205,429.87,205.45,430Zm66.42-.91a1.17,1.17,0,0,0-.36-1.76C271,427.74,271,429,271.87,429Zm3.47-.39c1.3.14,2-.28,2.07-1.39C276.56,427.56,275.42,427.58,275.34,428.65Zm-87.95,1.83c1.16.12,1.9-1.91.66-2.11C188.14,429.39,187.28,429.45,187.39,430.48Zm8.69-.45a2.25,2.25,0,0,0,.32-1.72C195.1,428,195,430,196.08,430ZM176.6,431.6c.37-1.43-.78-3.16-1.42-2.4C176.64,429.18,174.48,431.83,176.6,431.6Zm78.19-3.46c1.33,3-1.23,1.85-2.36,2.81-.47-1.14.4-1.67-.72-1.73-1.11.29-1.27,1.49-1.71,2.43-.09.92,1.34.28,1,1.38-1.24.21-1.55,1-2.78.38.09.66-.39.77-.34,1.41,4.42-.49,7.47-.64,11.11-2.2.25-1.06-1-.67-.7-1.71-1.42-.23-1.42.92-2.81.69C255.89,429.91,256.47,429,254.79,428.14Zm30.29,1.48c.49-1.24-1-2.22-1.44-1.39C284.28,428.55,284.26,429.51,285.08,429.62Zm-92.48,1.15c-.06-.9-.09-1.8-1.07-1.73C191.58,429.93,191.62,430.83,192.6,430.77Zm5.21.32c.64-.47,1.26-2.23-.38-2.1C197.72,430,197.52,430.76,197.81,431.09Zm27.45-.26c1.37.55,2.64-1.92,1-2.1C226.32,429.77,225.39,429.93,225.26,430.83Zm35.17-.3c.9.1.9-.74,1-1.39-.46,0-1.31-1.18-1.39-.35C260.78,428.73,260.2,430,260.43,430.53Zm-85.92,1.11c0-1.19,0-2.32-1.4-2.08C173.17,430.68,173.36,431.64,174.51,431.64Zm34.79.75a6.07,6.07,0,0,0,.67-2.48,1.66,1.66,0,0,1-1.05-.32C209.14,430.41,208.49,432.11,209.3,432.39Zm66-3.05c.08,1.29,1.26,1,2.08.67C277.35,428.73,276.19,429.08,275.34,429.34Zm-63.6,3c.3-.75,1-1,1-2.09h-1C212.09,431.16,210.68,431.93,211.74,432.35Zm7.62-.08c.16-.67.77-.86.7-1.74-.64.09-.76-.36-1.37-.32C218.69,431.14,218.49,432.25,219.36,432.27Zm14.31.24c.65-.56.94-2,0-2.46C233.4,431.1,232.41,431.81,233.67,432.51Zm-12.9.11c.15-.67,1-.65.68-1.75-.43,0-.48-.45-1-.34C220.62,431.14,220,432.57,220.77,432.62Zm22.27-.56c1.38.21,1.53-.77,1.71-1.74A1.87,1.87,0,0,0,243,432.06Zm-53.57.12c1.05-.12,2.71.36,2.77-.71A1.92,1.92,0,0,0,189.47,432.18Zm6.62,1A1.64,1.64,0,0,0,195,431.1C195,432.17,194.85,433.39,196.09,433.18Zm42.76,0c-.25-.76-1-1-1.72-1.38-.58,1.75,0,2.88,0,4.87,1.25.07,2.13-.26,2.44-1.07a3.54,3.54,0,0,1-1.07-2.06c.85-.48,1.49,1,1.76,0-.58-.44-.91-3.29-1.06-2.38C239.18,432.24,239.87,432.54,238.85,433.15Zm-46.25.06a1.88,1.88,0,0,0,1.73-1.76A2,2,0,0,0,192.6,433.21Zm12.89-.11c.13-.68,1-.64.67-1.76l-1,0C205.32,431.85,204.72,433.16,205.49,433.1Zm30.23-.28V431.1h-1.06C234.61,432.11,234.65,433,235.72,432.82Zm34.43-1.68c-.24.92.73.69,1.06,1-.09-.66.36-.76.32-1.4A2,2,0,0,0,270.15,431.14Zm-24,2.31c.57,0,.57-2.16,0-2.11C246.15,431.93,244.69,433.57,246.16,433.45Zm-71.28-.08c.6.61,1.36-.13,1.36-1.07C175.35,432.22,174.75,432.45,174.88,433.37Zm74.77-.66c.35-1.17-.49-1.14-1.39-1C248.15,432.62,249,432.57,249.65,432.71Zm-18.4,3.65c.25-2.71-1.24-3.68-3.17-4.15C228.67,434,230.62,434.53,231.25,436.36Zm36.81-2.77c.13-.91-.12-1.5-1.06-1.38C266.91,433.11,267.19,433.71,268.06,433.59Zm-8.65,1.11a25,25,0,0,1,3.07-.72C262.46,431.42,259.5,433.28,259.41,434.7Zm-84.16,1.78c1.84,0,1.87-1.83,2.74-2.79C176.15,433.71,175.68,435.06,175.25,436.48Zm51.86,3.72c.34-2.47-3.4-4.21-5.27-4.47,0-.62.93-2,0-2.43a1.93,1.93,0,0,1-1.75,1.76c-.3-.73,0-2.08-1.39-1.72.52,1.44-1.4,1.92-2.42,1.74C218.21,438.5,224.26,437.72,227.11,440.2Zm-27.52-4.27h1.06a1.7,1.7,0,0,0-1.09-2.09C199.85,435,198.93,435.31,199.59,435.93ZM267,434c0-.77-1.23-.14-1.74-.32C264.85,435.36,266.94,435.16,267,434Zm-71.25,3.4c1.69.27.49-2.28,1.71-2.43C196.18,435,195.61,435.83,195.79,437.35Zm5.56-1.1c1.13.23,1.25-.58,1.36-1.39C201.62,434.69,201.74,435.73,201.35,436.25Zm4.5.33c1.05.41,1.47-1.48.67-1.74C206.07,435.31,205,435.72,205.85,436.58Zm2.42.31c2.53-.36,4.77,1.48,6.63.64-1.23-.5-3.21-1.71-2.81-2.75-1.39.42-2.71,1.12-3.82,0C207,435.53,208.49,435.43,208.27,436.89Zm61.94-.89c1,0,1-.89,1-1.73C270.15,434.12,270.11,435,270.21,436Zm4.16-.39c1.34.39,1.24-1.25,2.07-.36.09-.92-.73-.89-1.41-1C274.88,434.75,274.55,435.11,274.37,435.61Zm-97,2.26c1.27.43,1.35-2.06.67-2.46C177.28,435.73,177.23,436.71,177.37,437.87Zm2.74-.74c-.13-.65-.12-1.48-1-1.36C179,436.67,179,437.48,180.11,437.13Zm46.27-.4c.93.64,3.05,1.85,2.81,1.73-.66-.75-2.78-3.35-2.47-2.76C227.45,436.82,226.68,436.36,226.38,436.73Zm30.26.09c2.36.7,5.9.78,6.93-1.46C261.21,435.88,258.38,435.11,256.64,436.82Zm-58.08.52c1,1,1.71-.37,2.09-1.08A2,2,0,0,0,198.56,437.34ZM233,438.76a4.44,4.44,0,0,0-.72-2.77C232.4,437,231.92,438.7,233,438.76Zm31.28-1.65c1,.24,2.46-.75,1.41-1.41C265.52,436.48,263.63,435.53,264.28,437.11Zm-78.91,1c.2,0,.41.07.34.35s0,.42.35.35c.27-1.05,1.12.19,1.75,0-.13-.8.07-1.34.65-1.41.51.59,2.29,1.2,2.1-.36C188,437.13,186.39,436.34,185.37,438.13Zm19.81-.17c.7-.2,2.31.42,2.43-.37-.41-.06-.56-.36-.69-.68.49,0,1.32-.09.69-.36C206.92,436.91,204.89,437.78,205.18,438Zm36.89,3.17c.12-.78,2.62-2.22,1.72-1.77-.64-.31-1.16,1-1.4,0a52.58,52.58,0,0,1,5.19-3.14C244.66,436.89,241.54,439.05,242.07,441.13Zm30.23-3.41c.81-.24,1.58-.48,1.72-1.4-1.07.26-1.26-.36-2.1-.33A2.26,2.26,0,0,0,272.3,437.72Zm-72,2c.07-.6.6-.79,1.38-.69-.19-.62.41-2.06-.35-2.1C201.65,438.32,199.32,438.86,200.32,439.74Zm2.07-1c1.27.51,1.92-1.32,1-1.76A9.94,9.94,0,0,0,202.39,438.7Zm37.94,1.39c.33-1.27,2.55-2.5,2-3.51C241.79,437.62,239.8,439.12,240.33,440.09Zm-66.78-.45c.15-1,1.81-.52,1.39-2.11h-1.07C174.15,438.43,172.52,439.17,173.55,439.64Zm2.07.32c1.3,0,2.47-1.85.7-2.08C176.1,438.58,175.47,438.88,175.62,440Zm-4.16-.32h1c-.08-.62.35-1.74-.7-1.36C171.7,438.73,171.29,438.94,171.46,439.64Zm20.18.19a2.19,2.19,0,0,0,2.39-1.77C192.57,438,192.27,439.09,191.64,439.83Zm65.05.48c-.65-.89.36-1.24-.39-1.76-.13.62-.48-.05-1.05,0,.06,1.48.55,2.48,1.75,2.77.16-1.26,1.18-1.62,1.38-2.81a1.58,1.58,0,0,1-1.05-.34C257.4,439.21,257.27,440,256.69,440.31Zm-67.52-1.17c-2.27,2.49,1.17,3,0,0Zm-2.4,2.82c.4-.78,1.16-1.16,1.37-2.11a1.59,1.59,0,0,1-1-.35C187.28,440.39,185.9,441.5,186.77,442Zm23.28-1.59c-.44,0-2.5,0-1.37.35,2,0,3.88-.1,4.86-1.08-1.89.75-3.58-1.14-5.57,0C208.92,440.26,209.57,439.11,210.05,440.37Zm-11.81,1.82c0-.91.22-2-.71-2.07C197,440.65,197,442.52,198.24,442.19Zm62.95-2.63c-.48,0-1,0-1.39,0A.74.74,0,1,0,261.19,439.56ZM181.91,442c1.06-.19,2.45-.08,2.41-1.41A2.47,2.47,0,0,0,181.91,442Zm20.17.54c.92.1.9-.73,1-1.39-.53-.1-.61-.57-1-.69C201.68,441.54,202.05,441.21,202.08,442.52Zm24.67-.56c1.86.78-1.67-1.4-3.47-1.37,0-.52-1-.22-.36,0A40.45,40.45,0,0,1,226.75,442Zm7.54,1.41c.53-1.11,4.53-1.4,4.64-2.92C238.25,441.18,233.86,442.71,234.29,443.37Zm-39.84-1.47c-1.22-.4-1,2.54.34,1.71C195.08,442.63,194.27,442.72,194.45,441.9Zm2.07,1c-.48-.64-.43-1.87-1.76-1.72C194.51,442.67,195.6,443.74,196.52,442.9Zm-22.6.9c.07-.56,1.17-1.82.34-2.09C174,442.08,172.9,443.33,173.92,443.8Zm9.05.27c.22-.82,1.15-.94,1.39-1.74C183.43,441.14,182,443.48,183,444.07ZM193.4,444c-.08-1.09-.29-2.08-1.4-2.08C191.87,443.2,192.76,443.48,193.4,444Zm13.21-1.52c.07.67-.39.78-.35,1.39a5.35,5.35,0,0,0,4.16-1.77C208.84,441.9,208.27,442.74,206.61,442.46Zm22.87,9.29a7.32,7.32,0,0,0,1.37-4.17c-1.53-.48,0,2.08-1,2.1-.17-2.13.11-4.05-.08-5.22-.33-2.56-.28-1.74-.67.35-.25,1.27-.08,6.79-1,8.48a6.08,6.08,0,0,0,0-2.75c-.77-4.56-1.94-6.63-3.54-8.38,1.17,1.52,1.69,8.44,1.1,9.65,1.83-1.63.91-4.85.5-6.13,1.21,3.49,1.5,9.07.13,10.9-1.43,2.52-1.93,9.15-1.22,11.48.49-.77.69-6,1.92-9.34a14,14,0,0,0,1.08-5m-47.55-8.91c.39-.52,1.15-.74,1.05-1.75h-1.05C180.34,443.25,179.73,444.7,180.53,444.79Zm10.78.6c.3-.84.61-2-.69-2.07A1.55,1.55,0,0,0,191.31,445.39Zm8.36-.41c0-.89-.08-1.8-1.07-1.74C197.9,443.93,198.88,444.73,199.67,445Zm-4.53,0c.27.07.4.28.37.69.62-.42,2-.07,2.42-.71C196.87,445,195.54,443.56,195.14,445Zm7.33,1c.05-1,0-1.89-1.06-1.71C201.35,445.23,201.38,446.15,202.47,446Zm-14.26.82a1.28,1.28,0,0,0-.71-2.07C187.51,445.66,187.32,446.78,188.21,446.8Zm3.82-1.06c-.16,1.1.45,1.41,1,1.73-.21-1.3,0-3-.36-2.45C192.65,445.43,192.33,445.56,192,445.74Zm41.22,24c1.69,2.86-4.33-4-2.44-5.26a13,13,0,0,0,3.8,4.92c-.42-2.2-3.25-5.16-3.47-6.64-.08.4.05,1-.33,1-.62-8,5.33-10.36,2.47-18.36C234.22,454.54,228.87,462.51,233.25,469.78Zm-3.8-13.95c-.4,2.49-1.75,5.74-1.1,8.37-2.09-.51-.35,2.63-3.1,2.79.92,1.54,1.49,2,1.05,3.19,1.31-.18,4.25-.29,2.09-1,.48-.06,1.28.1,1.35-.38a15.23,15.23,0,0,1-3.44-1.08c.42-.07,1,.06,1-.33-.28-.12-.71,0-.71-.37.76-.43.82-1.5,1.37-2.11-.39,2.06,3.57,4.33,2.81,5.63,1.54.44,2,2.62,3.84,1-.82-.12-1.31-.56-2.44-.34C227.64,464,229.57,459.12,229.45,455.83Zm-33.57-6.66c.37-2.12.43-.61,1.72-.37v-1.37c-.44-.47-1.51-.33-2.43-.33C195.17,448,195,449.16,195.88,449.17Zm34.25,4.34c1.64-.62,3.62-5.23,2.37-5.83C232.65,449.79,231.09,452.49,230.13,453.51Zm5.63-1.11c-.24-1.25,1.09-3.08.3-3.14,0,.66-.18,1.18-.66,1.4-.33-1.18-.14-2.86-1.08-3.45.22.91-.43,2.76.41,3.11.07-.27,0-.68.34-.69C235.29,450.56,235.22,451.81,235.76,452.4Zm1.73-1.39c.21-.73.53-.77,1-.39v-1C237.46,449.16,236.55,450.6,237.49,451Zm-5.68,11.42c-.1-3.77.94-5.65.84-8.26A10.43,10.43,0,0,0,231.81,462.43Zm3.36-7.7c-2.1,2.54-4.29,8.5-2.26,12.89C231.37,462.84,234.82,456.48,235.17,454.73Zm-.57,4.9c-1.6,3.92,1.43.53,1-1.42C235.26,459.06,234.75,459.18,234.6,459.63Zm-10.74,8.08c.33-.56,1.29-2.14.33-2.79C224.32,465.9,222.89,467,223.86,467.71Zm0,3.22c.65-.66-.14-2.21-1-3.22A6,6,0,0,0,223.85,470.93Zm14.27.55c-1,0-1.3-.78-1.76-1.38.19,0,.38-.27,0-.33C235.27,470.69,237.54,472.34,238.12,471.48Zm-11.82,1.16c.22-.29,1.61-1.1,1.76-.35-.93,0-2.49,1.19-1.74,1.74,0-.45,1-.45,1.06,0-.38,0-.3.46.32.35-.09-.82-.89-1.63.69-1.41v-1C227.88,471.06,225.13,471.9,226.3,472.64Zm2.76-2.11c-1.06-.11-3.42.28-2.43,1.05C227.06,470.84,228.73,471.36,229.06,470.53Zm4.2,2.4c1.62-.15,2.6,0,1.4,1,1,.06,2.12-1.35,2.45,0-.56,0-1.22-.05-1.06.68.63.22,2-.43,2.09.35-.41,0-.8.09-.68.7h1.36c-.68.68.2.66.4,1.36-.81.5-1.35,1.22-2.08,1.77,3.49.26,6.26,2.22,9.39.94a12.18,12.18,0,0,0-6.26-1c.59-1.12,2-.09,2.42-.7-.67-.16-.88-.76-1.75-.7-.41.64-1.84,2.05-2.75,1.07.35-1,2.37-.37,2.75-1.41-1.17-1-3.64-3-2.44-4.15C237.26,472.55,234.19,471.33,233.26,472.93Zm-1.73,1c-.39,0-.6-.57-1.74-.33C230.93,475,235.05,474.23,231.53,474Zm11.84,2c.42-.48,2-.56,1.06.34.6-.19,1.44-.18,1.72-.71-.4,0-1,.08-1.05-.34.6-.63-3.54-1.26-4.16-.66.24.07.68,0,.68.34-.26.1-.68,0-.68.33,1.29.47,2.4-1,3.13,0C243.92,475.46,242.37,475.77,243.37,476Zm-15.29.48c-1-.65-1-.23-.7-1.73H226c-.12.6.53.9,0,1.06-2.45.35-5.2,2.21-5.52,3.5.23-.67.89-.91,1.72-1,0,.34-.25.41-.33.7.5-.22,1.8.38,1.71-.38-.54.24-1.51-.67-.68-.69.25.8,2.14-.06,2.45.68-1-1.6.85-.58,1.38-1.41-.62-.3-1.77-.12-2.09-.68C225.74,476.21,229.05,476.84,228.08,476.44Zm1.74-1.06c1.06.29,3.64.09,4.14-.38C232,474.4,230.09,475.46,229.82,475.38Zm20.51,1.21c.71,1.17.69.36,0-.36-1.45-.27-2.38-1.06-3.83-1.34-.2,0-.4.28,0,.32C248,475.49,248.76,476.44,250.33,476.59Zm-20.16-.17c1.29-.12,6.38.22,4.88-.4-1.59.21-5.86-.47-5.23.74C229.84,476.56,229.87,476.35,230.17,476.42ZM247.58,478c-2.15,0-2.71-1.71-5.24-1.36C243,478.29,246.15,479.33,247.58,478Zm-16.7-.54c-.37,0-.26.44.33.35a7.28,7.28,0,0,1,3.51-.06C239.54,477.91,232,476.47,230.88,477.47ZM224,479.25c4.54,0,9.14-.16,12.46-.45C231.36,478.44,227.78,478.38,224,479.25Zm25.33-.19c-1.09.15-1.21-.63-2.45-.34C246.46,479.85,249.23,479.55,249.3,479.06Z"/><path class="cls-5" d="M223.13,469.41m-8.54-31.79,31.82,11.05"/><polygon class="cls-8" points="302.74 493.61 168.93 508.27 164.22 469.12 297.98 454.52 302.74 493.61"/><path class="cls-9" d="M282.93,476.47a103,103,0,0,1-11.63,1.69c-.22-1.93-.36-2.2-.57-4.16-.11-.7-.15-1.05-.24-1.78a65.76,65.76,0,0,0,16.64,3A31.85,31.85,0,0,1,282.93,476.47Z"/><path class="cls-9" d="M179.16,475.91c5-3.39,9.3-6.6,14.56-9.59.08.72,0,.59.06,1.29.22,1.95.25,3,.49,5a51.9,51.9,0,0,0-11.69,2.23A32.74,32.74,0,0,0,179.16,475.91Z"/><path class="cls-10" d="M165.09,476.41c8.9-5.63,17.65-9.5,28.36-10.48-1.46.8-2.22,1.22-3.7,2.11a117.27,117.27,0,0,0-11.23,8c.45,3.72.58,5.8,1,9.57.07.6.11.93.19,1.53a46.1,46.1,0,0,0-12.57,6.82c.52-1,.77-1.53,1.29-2.53,2.53-5,3.82-7.38,6.43-11.84a47.75,47.75,0,0,0-8.09-2.6C166.13,476.72,165.79,476.62,165.09,476.41Z"/><path class="cls-10" d="M291.11,475.38a55.73,55.73,0,0,0,8.23,3.42c.67.21,1,.3,1.63.48a46.11,46.11,0,0,1-12.53,6.86c-.08-.59-.13-.93-.19-1.52-.44-3.76-.67-5.61-1.12-9.37a51.89,51.89,0,0,1-12.53-1.88c-1.65-.42-2.44-.64-4.11-1.15,10.74-1,19.49-4.82,28.38-10.44-.54,1.08-.78,1.6-1.31,2.68C295,469.11,293.7,471.3,291.11,475.38Z"/><path class="cls-10" d="M180.65,494.77c-.08-.75-.12-1.12-.21-1.89-.69-5.84-1-8.77-1.74-14.63-.09-.81-.15-1.22-.27-2,36.35-11.06,72.44,10.25,108.73-.82.11.82.12,1.06.21,1.89.71,5.85,1,8.79,1.75,14.61.11.75.16,1.14.26,1.9C253.06,504.88,217,483.72,180.65,494.77Z"/><path class="cls-6" d="M182.58,481.92a3.57,3.57,0,0,0-.57-1.68l1.77-.32a3.46,3.46,0,0,0,0,1.78l1.08,6.21,1-.19a2.72,2.72,0,0,0,1.94-1.1v1.29c-.29.07-.56.13-.85.18l-3.64.62c.33-.58,0-2.47-.08-3.07Z"/><path class="cls-6" d="M190.39,487.09l1.56-.16a3.37,3.37,0,0,0,2.24-1l-.12,1.24c-.35.06-.8.15-1.28.22l-3.88.37a3.08,3.08,0,0,0,.15-1.77l-.49-5a3.62,3.62,0,0,0-.45-1.74l4.65-.47.15,1a3,3,0,0,0-2-.3l-1.27.13.33,3.2c1-.08,2.11-.2,3.13-.38-.39.79-1.91.94-2.71,1l-.36,0Z"/><path class="cls-6" d="M201.51,487l-1.58-3.77-3,.08a11.05,11.05,0,0,0-1.11,3.3,3.12,3.12,0,0,0,.08.52l-1.68,0,.27-.39c.73-1,3.39-6.83,3.35-7.93l0-.35,1.58,0a50.38,50.38,0,0,0,3.25,8l.3.47Zm-2.82-7.14c0-.11-.13-.33-.23-.33s-.22.27-.22.33l-1.13,2.92,2.59-.06Z"/><path class="cls-6" d="M209.33,486a6.29,6.29,0,0,0,1.08,1.31l-1.11-.05c-.59,0-.81-.35-1.11-.77l-1.52-2.43c-.54-.83-.62-1.06-1.39-1.17l-.1,2.43a3.09,3.09,0,0,0,.22,1.78l-1.88-.08a3.1,3.1,0,0,0,.42-1.83l.22-5a3.31,3.31,0,0,0-.22-1.77c1.14,0,2.22,0,3.26,0,1.36.06,2.06.81,2,1.87a2.81,2.81,0,0,1-2.08,2.35Zm-4.05-3.63a2.7,2.7,0,0,0,.63.07,1.8,1.8,0,0,0,2.09-1.89c.05-1.36-.71-1.54-1.9-1.62h-.65c0,.19,0,.43,0,.63Z"/><path class="cls-6" d="M210.64,487.35a10.67,10.67,0,0,0,.81-3.86l.29-2.86a2.47,2.47,0,0,0-.29-1.83l1.35.15c.3,0,.41,0,.53.24.25.41,1,1.9,1.35,2.55l2.29,4c.08.14.2.36.28.36s.08-.14.08-.26l.48-4.72a3.74,3.74,0,0,0-.17-1.74l1.38.12a4.08,4.08,0,0,0-.58,2l-.49,5.35c0,.43-.07.85-.07,1.25l-1-.08-4.26-7.42c-.06-.08-.09-.16-.14-.16s-.1.08-.1.17l-.32,3.45a9.93,9.93,0,0,0,.1,3.48Z"/><path class="cls-6" d="M221.3,488l-1.13.53-.52-1,1.15-.55Z"/><path class="cls-6" d="M227.81,482.39a3.27,3.27,0,0,0-.08-1.77l1.79.23a3.65,3.65,0,0,0-.51,1.7l-.87,6.21,1,.14a2.69,2.69,0,0,0,2.21-.45l-.43,1.2-.84,0-3.68-.49c.5-.48.77-2.36.89-3Z"/><path class="cls-6" d="M233.67,489.53l1.52.22a3.38,3.38,0,0,0,2.39-.45l-.4,1.19c-.37,0-.82,0-1.29-.1l-3.86-.53a3.75,3.75,0,0,0,.59-1.71l.69-5a3.38,3.38,0,0,0-.05-1.77l4.63.61-.07,1.06a3.08,3.08,0,0,0-1.92-.78l-1.24-.16-.43,3.17a29.84,29.84,0,0,0,3.17.34c-.59.71-2.11.49-2.94.4l-.32-.07Z"/><path class="cls-6" d="M244.57,491.55l-.94-3.93-3-.4a9.4,9.4,0,0,0-1.58,3.09,2.32,2.32,0,0,0-.05.53l-1.67-.21.35-.34c.89-.87,4.37-6.26,4.54-7.33l0-.39,1.59.22a46.83,46.83,0,0,0,2,8.43l.18.53Zm-1.69-7.47c0-.1-.06-.33-.19-.36s-.2.24-.26.28l-1.53,2.74,2.55.32Z"/><path class="cls-6" d="M247.58,485a3.6,3.6,0,0,0-.11-1.78c1.07.09,2.12.06,3.16.19a2.14,2.14,0,0,1,2.24,2.49,2.46,2.46,0,0,1-2.82,2.42,1.48,1.48,0,0,1-1.11-.43c1.06,0,2.32-.05,2.52-2,.13-1-.09-1.88-1.46-2l-1.06-.11-.68,6.4a3.15,3.15,0,0,0,.18,1.77l-1.85-.18a3.79,3.79,0,0,0,.47-1.73Z"/><path class="cls-6" d="M253.38,492l-1.1.55-.57-1,1.12-.59Z"/><path class="cls-6" d="M259.25,486a3.35,3.35,0,0,0-.25-1.79l1.78,0a4,4,0,0,0-.33,1.76l-.22,6.27,1,.05a2.66,2.66,0,0,0,2.12-.71l-.29,1.24a5.7,5.7,0,0,1-.82,0l-3.73-.12a8.38,8.38,0,0,0,.57-3Z"/><path class="cls-6" d="M265.84,492.4l1.55,0a3.43,3.43,0,0,0,2.32-.79l-.23,1.24c-.37,0-.8.07-1.29.07l-3.91.08a3.19,3.19,0,0,0,.31-1.74l-.09-5.08a4.1,4.1,0,0,0-.3-1.76l4.66-.09.08,1a2.94,2.94,0,0,0-2-.47h-1.25l.06,3.21a30.56,30.56,0,0,0,3.17-.14c-.46.76-2,.81-2.86.81h-.31Z"/><path class="cls-6" d="M276.87,492.24,275,488.63l-3,.3a9.21,9.21,0,0,0-.87,3.33,4.34,4.34,0,0,0,.08.52l-1.66.15.23-.4c.7-1,2.91-7,2.79-8.15V484l1.54-.15a52.15,52.15,0,0,0,3.88,7.77l.27.44Zm-3.31-6.9c0-.1-.15-.31-.26-.29s-.19.25-.2.33l-.87,3,2.53-.23Z"/><path class="cls-6" d="M277.61,485.3a3.73,3.73,0,0,0-.62-1.66c1.31-.26,2.63-.67,4-.95a3.75,3.75,0,0,1,4.52,3.26,4.41,4.41,0,0,1-3.58,5.52c-1.32.28-2.28.4-3.2.59a3.17,3.17,0,0,0-.08-1.77Zm2.23,5c.23.95.5.95,1.93.65,2.33-.49,2.84-2.31,2.4-4.49s-2-3.46-4.36-3a6.54,6.54,0,0,0-1.23.35,6.37,6.37,0,0,1,.11.63Z"/><path class="cls-5" d="M165.18,346.66a1.15,1.15,0,0,1-1.73-.21,1.2,1.2,0,0,1,.13-1.75,1.26,1.26,0,0,1,1.6,1.95Z"/><path class="cls-5" d="M162.53,349.13a1.28,1.28,0,0,1-1.59-2,1.15,1.15,0,0,1,1.73.21,1.17,1.17,0,0,1-.11,1.75Z"/><path class="cls-5" d="M168.2,344.25a1.27,1.27,0,1,1,.21-1.77,1.2,1.2,0,0,1-.21,1.77Z"/><path class="cls-5" d="M171.61,341.73a1.19,1.19,0,0,1-1.7-.37,1.15,1.15,0,0,1,.28-1.73,1.18,1.18,0,0,1,1.71.32,1.23,1.23,0,0,1-.29,1.78Z"/><path class="cls-5" d="M175.09,339.39a1.16,1.16,0,0,1-1.68-.45,1.17,1.17,0,0,1,.29-1.72,1.2,1.2,0,0,1,1.74.42,1.21,1.21,0,0,1-.35,1.75Z"/><path class="cls-5" d="M178.69,337.16a1.28,1.28,0,0,1-1.26-2.23,1.15,1.15,0,0,1,1.67.47,1.21,1.21,0,0,1-.38,1.76Z"/><path class="cls-5" d="M182.36,335.1a1.18,1.18,0,0,1-1.64-.57,1.2,1.2,0,0,1,.45-1.71,1.22,1.22,0,0,1,1.68.57,1.2,1.2,0,0,1-.49,1.71Z"/><path class="cls-5" d="M186.12,333.21a1.2,1.2,0,0,1-1.63-.64,1.26,1.26,0,0,1,.54-1.71,1.19,1.19,0,0,1,1.64.65,1.2,1.2,0,0,1-.55,1.68Z"/><path class="cls-5" d="M190,331.46a1.29,1.29,0,0,1-1-2.38,1.18,1.18,0,0,1,1.61.71,1.21,1.21,0,0,1-.61,1.66Z"/><path class="cls-5" d="M193.86,329.87a1.18,1.18,0,0,1-1.56-.79,1.22,1.22,0,1,1,1.57.79Z"/><path class="cls-5" d="M197.8,328.48a1.21,1.21,0,0,1-1.52-.84A1.22,1.22,0,0,1,197,326a1.29,1.29,0,0,1,.79,2.46Z"/><path class="cls-5" d="M201.86,327.21a1.2,1.2,0,0,1-1.5-.92,1.22,1.22,0,1,1,2.35-.65,1.23,1.23,0,0,1-.81,1.57Z"/><path class="cls-5" d="M206,326.13a1.28,1.28,0,0,1-.56-2.5,1.16,1.16,0,0,1,1.44,1,1.18,1.18,0,0,1-.88,1.53Z"/><path class="cls-5" d="M210,325.25a1.3,1.3,0,1,1,1-1.52,1.23,1.23,0,0,1-1,1.52Z"/><path class="cls-5" d="M214.19,324.49a1.28,1.28,0,0,1-.35-2.54,1.17,1.17,0,0,1,1.38,1.07,1.19,1.19,0,0,1-1,1.47Z"/><path class="cls-5" d="M218.37,323.94a1.2,1.2,0,0,1-1.32-1.15,1.19,1.19,0,0,1,1.07-1.4,1.17,1.17,0,0,1,1.33,1.14,1.18,1.18,0,0,1-1.08,1.41Z"/><path class="cls-5" d="M222.5,323.57a1.29,1.29,0,1,1,1.16-1.39,1.26,1.26,0,0,1-1.14,1.39Z"/><path class="cls-5" d="M226.77,323.35A1.29,1.29,0,1,1,228,322a1.2,1.2,0,0,1-1.21,1.35Z"/><path class="cls-5" d="M230.93,323.32a1.3,1.3,0,0,1,.07-2.6,1.24,1.24,0,0,1,1.19,1.33,1.2,1.2,0,0,1-1.25,1.27Z"/><path class="cls-5" d="M235.17,323.45A1.19,1.19,0,0,1,234,322.1a1.2,1.2,0,0,1,1.3-1.23,1.18,1.18,0,0,1,1.1,1.35,1.21,1.21,0,0,1-1.27,1.23Z"/><path class="cls-5" d="M239.4,323.76a1.21,1.21,0,0,1-1.09-1.39,1.23,1.23,0,0,1,1.35-1.18,1.25,1.25,0,0,1,1.11,1.41,1.2,1.2,0,0,1-1.35,1.16Z"/><path class="cls-5" d="M243.48,324.23a1.21,1.21,0,0,1-1-1.44,1.21,1.21,0,1,1,1,1.44Z"/><path class="cls-5" d="M247.74,324.91a1.26,1.26,0,0,1-1-1.48,1.23,1.23,0,1,1,2.42.44,1.25,1.25,0,0,1-1.45,1Z"/><path class="cls-5" d="M251.81,325.71a1.16,1.16,0,0,1-.86-1.49,1.21,1.21,0,1,1,2.36.51,1.17,1.17,0,0,1-1.47,1Z"/><path class="cls-5" d="M255.89,326.73a1.2,1.2,0,0,1-.79-1.53,1.24,1.24,0,0,1,1.54-.95,1.3,1.3,0,0,1-.72,2.49Z"/><path class="cls-5" d="M259.93,327.91a1.29,1.29,0,0,1,.83-2.44,1.18,1.18,0,0,1,.76,1.56,1.22,1.22,0,0,1-1.56.88Z"/><path class="cls-5" d="M264,329.26a1.2,1.2,0,0,1-.71-1.61,1.22,1.22,0,0,1,1.6-.79,1.29,1.29,0,0,1-.89,2.41Z"/><path class="cls-5" d="M267.84,330.75a1.17,1.17,0,0,1-.59-1.61,1.21,1.21,0,1,1,2.23.92,1.16,1.16,0,0,1-1.61.69Z"/><path class="cls-5" d="M271.73,332.44a1.19,1.19,0,0,1-.52-1.66,1.2,1.2,0,1,1,2.17,1,1.2,1.2,0,0,1-1.63.66Z"/><path class="cls-5" d="M275.53,334.27a1.18,1.18,0,0,1-.5-1.67,1.22,1.22,0,0,1,1.71-.58,1.15,1.15,0,0,1,.46,1.68,1.17,1.17,0,0,1-1.67.58Z"/><path class="cls-5" d="M279.21,336.27a1.21,1.21,0,0,1-.39-1.71,1.19,1.19,0,0,1,1.67-.52,1.21,1.21,0,0,1,.44,1.72,1.19,1.19,0,0,1-1.7.51Z"/><path class="cls-5" d="M282.85,338.39a1.15,1.15,0,0,1-.36-1.7,1.21,1.21,0,1,1,.36,1.72Z"/><path class="cls-5" d="M286.38,340.71a1.29,1.29,0,0,1,1.46-2.11,1.16,1.16,0,0,1,.28,1.75,1.15,1.15,0,0,1-1.7.37Z"/><path class="cls-5" d="M289.85,343.19a1.3,1.3,0,0,1,1.59-2.06,1.2,1.2,0,0,1,.16,1.76,1.17,1.17,0,0,1-1.74.3Z"/><path class="cls-5" d="M293.15,345.74a1.28,1.28,0,1,1,1.78-.22,1.2,1.2,0,0,1-1.76.24Z"/><path class="cls-5" d="M296.4,348.5a1.22,1.22,0,0,1-.06-1.77,1.17,1.17,0,0,1,1.75-.15,1.2,1.2,0,0,1,.1,1.75,1.23,1.23,0,0,1-1.79.17Z"/><path class="cls-5" d="M299.46,351.28a1.17,1.17,0,0,1,0-1.74,1.19,1.19,0,0,1,1.77-.09,1.3,1.3,0,0,1-1.79,1.87Z"/><path class="cls-5" d="M302.44,354.31a1.31,1.31,0,1,1,1.79,0,1.19,1.19,0,0,1-1.77,0Z"/><path class="cls-5" d="M305.36,357.41a1.27,1.27,0,0,1,1.89-1.68,1.27,1.27,0,0,1-1.89,1.69Z"/><path class="cls-5" d="M308,360.59a1.3,1.3,0,0,1,2-1.59,1.22,1.22,0,0,1-.22,1.75,1.25,1.25,0,0,1-1.8-.14Z"/><path class="cls-5" d="M310.6,363.94a1.26,1.26,0,0,1,.35-1.74,1.2,1.2,0,0,1,1.75.22,1.29,1.29,0,0,1-2.06,1.54Z"/><path class="cls-5" d="M313,367.33a1.25,1.25,0,0,1,.41-1.69,1.18,1.18,0,0,1,1.75.27,1.28,1.28,0,0,1-2.12,1.42Z"/><path class="cls-5" d="M315.41,370.91a1.22,1.22,0,0,1,.42-1.7,1.24,1.24,0,0,1,1.77.35,1.2,1.2,0,0,1-.47,1.72,1.17,1.17,0,0,1-1.72-.37Z"/><path class="cls-5" d="M317.53,374.5a1.19,1.19,0,0,1,.52-1.67,1.22,1.22,0,0,1,1.73.44,1.18,1.18,0,0,1-.5,1.66,1.21,1.21,0,0,1-1.75-.43Z"/><path class="cls-5" d="M319.52,378.2a1.18,1.18,0,0,1,.58-1.64,1.23,1.23,0,0,1,1.73.49,1.29,1.29,0,0,1-2.31,1.15Z"/><path class="cls-5" d="M321.38,382a1.17,1.17,0,0,1,.66-1.59,1.19,1.19,0,0,1,1.67.56,1.21,1.21,0,0,1-.67,1.64,1.18,1.18,0,0,1-1.66-.58Z"/><path class="cls-5" d="M323,385.86a1.23,1.23,0,0,1,.75-1.59,1.21,1.21,0,1,1-.7,1.62Z"/><path class="cls-5" d="M324.6,389.79A1.28,1.28,0,0,1,327,389a1.18,1.18,0,0,1-.78,1.56,1.17,1.17,0,0,1-1.62-.71Z"/><path class="cls-5" d="M325.92,393.75a1.3,1.3,0,1,1,1.63.79,1.16,1.16,0,0,1-1.59-.75Z"/><path class="cls-5" d="M327.11,397.87a1.28,1.28,0,0,1,1-1.5,1.22,1.22,0,0,1,1.54.87,1.16,1.16,0,0,1-.9,1.47,1.13,1.13,0,0,1-1.55-.83Z"/><path class="cls-5" d="M328.11,401.89a1.25,1.25,0,0,1,1-1.45,1.23,1.23,0,1,1,.55,2.39,1.22,1.22,0,0,1-1.54-.93Z"/><path class="cls-5" d="M329,406.07a1.2,1.2,0,0,1,1.06-1.41,1.22,1.22,0,1,1,.41,2.39,1.19,1.19,0,0,1-1.46-1Z"/><path class="cls-5" d="M329.68,410.18a1.15,1.15,0,0,1,1.09-1.33,1.22,1.22,0,0,1,1.47,1,1.26,1.26,0,0,1-1.15,1.4,1.17,1.17,0,0,1-1.41-1.05Z"/><path class="cls-5" d="M330.15,414.39a1.27,1.27,0,0,1,1.18-1.33,1.22,1.22,0,0,1,1.39,1.12,1.29,1.29,0,0,1-2.57.23Z"/><path class="cls-5" d="M330.49,418.65a1.17,1.17,0,0,1,1.19-1.27,1.22,1.22,0,1,1,.14,2.44,1.18,1.18,0,0,1-1.33-1.16Z"/><path class="cls-5" d="M330.64,422.85a1.28,1.28,0,1,1,1.28,1.24,1.21,1.21,0,0,1-1.28-1.22Z"/><path class="cls-5" d="M330.61,427a1.23,1.23,0,0,1,1.3-1.18,1.26,1.26,0,0,1,1.28,1.27,1.23,1.23,0,0,1-1.33,1.18,1.2,1.2,0,0,1-1.25-1.26Z"/><path class="cls-5" d="M330.42,431.21a1.28,1.28,0,1,1,1.18,1.31,1.18,1.18,0,0,1-1.18-1.29Z"/><path class="cls-5" d="M330.05,435.45a1.18,1.18,0,0,1,1.41-1,1.15,1.15,0,0,1,1.11,1.35,1.27,1.27,0,0,1-2.52-.29Z"/><path class="cls-5" d="M329.5,439.64a1.21,1.21,0,0,1,1.45-1,1.23,1.23,0,0,1,1.07,1.42,1.28,1.28,0,0,1-2.52-.41Z"/><path class="cls-5" d="M328.77,443.75a1.22,1.22,0,0,1,1.49-.9,1.2,1.2,0,0,1,1,1.46,1.15,1.15,0,0,1-1.48.92,1.18,1.18,0,0,1-1-1.44Z"/><path class="cls-5" d="M327.9,447.91a1.17,1.17,0,0,1,1.5-.86,1.25,1.25,0,0,1,1,1.5,1.15,1.15,0,0,1-1.53.86,1.18,1.18,0,0,1-1-1.47Z"/><path class="cls-5" d="M326.81,452a1.2,1.2,0,0,1,1.54-.79,1.21,1.21,0,1,1-1.54.8Z"/><path class="cls-5" d="M325.58,456a1.22,1.22,0,0,1,1.61-.73,1.2,1.2,0,0,1,.83,1.55,1.18,1.18,0,0,1-1.57.76,1.22,1.22,0,0,1-.87-1.58Z"/><path class="cls-5" d="M324.18,460a1.2,1.2,0,0,1,1.6-.66,1.23,1.23,0,0,1,.79,1.62,1.28,1.28,0,0,1-2.39-.93Z"/><path class="cls-5" d="M322.65,463.89a1.17,1.17,0,0,1,1.61-.61,1.21,1.21,0,0,1,.72,1.63,1.18,1.18,0,0,1-1.65.62,1.23,1.23,0,0,1-.72-1.64Z"/><path class="cls-5" d="M320.9,467.74a1.27,1.27,0,1,1,.59,1.67,1.21,1.21,0,0,1-.61-1.66Z"/><path class="cls-5" d="M319,471.49a1.17,1.17,0,0,1,1.67-.44,1.21,1.21,0,1,1-1.7.47Z"/><path class="cls-5" d="M317,475.15a1.19,1.19,0,0,1,1.71-.36,1.22,1.22,0,0,1,.48,1.7,1.17,1.17,0,0,1-1.69.4,1.2,1.2,0,0,1-.5-1.71Z"/><path class="cls-5" d="M314.75,478.8a1.29,1.29,0,0,1,2.15,1.41,1.19,1.19,0,0,1-1.74.33,1.21,1.21,0,0,1-.42-1.73Z"/><path class="cls-5" d="M312.43,482.27a1.28,1.28,0,0,1,2.05,1.52,1.13,1.13,0,0,1-1.71.25,1.22,1.22,0,0,1-.34-1.76Z"/><path class="cls-5" d="M309.93,485.7a1.17,1.17,0,0,1,1.72-.15,1.23,1.23,0,1,1-1.48,1.95,1.25,1.25,0,0,1-.27-1.79Z"/><path class="cls-5" d="M307.34,489a1.28,1.28,0,1,1,.15,1.8,1.22,1.22,0,0,1-.18-1.77Z"/><path class="cls-5" d="M304.53,492.19a1.23,1.23,0,0,1,1.78,0,1.21,1.21,0,0,1,.11,1.77,1.19,1.19,0,0,1-1.76,0,1.16,1.16,0,0,1-.13-1.76Z"/><path class="cls-5" d="M301.63,495.26a1.19,1.19,0,0,1,1.75.06,1.21,1.21,0,0,1,.07,1.77,1.24,1.24,0,0,1-1.78,0,1.25,1.25,0,0,1-.08-1.79Z"/><path class="cls-5" d="M298.63,498.18a1.19,1.19,0,0,1,1.76.13,1.16,1.16,0,0,1,0,1.75,1.18,1.18,0,0,1-1.76-.1,1.2,1.2,0,0,1,0-1.78Z"/><path class="cls-5" d="M295.52,501a1.16,1.16,0,0,1,1.71.2,1.21,1.21,0,0,1-.11,1.79,1.15,1.15,0,0,1-1.71-.18,1.23,1.23,0,0,1,.07-1.8Z"/><path class="cls-5" d="M292.21,503.7A1.24,1.24,0,0,1,294,504a1.22,1.22,0,0,1-.2,1.77,1.16,1.16,0,0,1-1.72-.26,1.21,1.21,0,0,1,.16-1.76Z"/><path class="cls-5" d="M288.91,506.21a1.2,1.2,0,0,1,1.69.34,1.22,1.22,0,0,1-.21,1.77,1.18,1.18,0,0,1-1.72-.31,1.21,1.21,0,0,1,.22-1.79Z"/><path class="cls-5" d="M285.41,508.65a1.28,1.28,0,0,1,1.37,2.15,1.16,1.16,0,0,1-1.7-.4,1.22,1.22,0,0,1,.28-1.74Z"/><path class="cls-5" d="M281.88,510.87a1.21,1.21,0,0,1,1.67.5,1.19,1.19,0,0,1-.37,1.72,1.17,1.17,0,0,1-1.7-.45,1.19,1.19,0,0,1,.39-1.73Z"/><path class="cls-5" d="M278.25,513a1.21,1.21,0,0,1,1.68.55,1.23,1.23,0,0,1-.48,1.71,1.26,1.26,0,0,1-1.7-.55,1.21,1.21,0,0,1,.5-1.71Z"/><path class="cls-5" d="M274.47,515a1.2,1.2,0,0,1,1.63.64,1.24,1.24,0,0,1-.54,1.71,1.22,1.22,0,0,1-1.65-.61,1.25,1.25,0,0,1,.55-1.74Z"/><path class="cls-5" d="M270.75,516.74a1.17,1.17,0,0,1,1.58.67,1.22,1.22,0,0,1-.6,1.69,1.2,1.2,0,0,1-1.62-.7,1.16,1.16,0,0,1,.62-1.66Z"/><path class="cls-5" d="M266.82,518.35a1.24,1.24,0,0,1,1.58.78,1.22,1.22,0,0,1-.66,1.65,1.24,1.24,0,0,1-1.61-.74,1.19,1.19,0,0,1,.66-1.65Z"/><path class="cls-5" d="M262.85,519.85a1.17,1.17,0,0,1,1.53.82,1.2,1.2,0,1,1-2.27.79,1.19,1.19,0,0,1,.74-1.61Z"/><path class="cls-5" d="M258.86,521.14a1.22,1.22,0,0,1,1.52.87,1.24,1.24,0,0,1-.8,1.59,1.28,1.28,0,0,1-.73-2.46Z"/><path class="cls-5" d="M254.79,522.27a1.21,1.21,0,0,1,1.51.94,1.26,1.26,0,0,1-.86,1.57,1.3,1.3,0,0,1-.65-2.51Z"/><path class="cls-5" d="M250.7,523.25a1.19,1.19,0,0,1,1.45,1,1.22,1.22,0,1,1-2.38.51,1.15,1.15,0,0,1,.92-1.49Z"/><path class="cls-5" d="M246.53,524a1.29,1.29,0,1,1-1,1.48,1.21,1.21,0,0,1,1-1.48Z"/><path class="cls-5" d="M242.37,524.62a1.3,1.3,0,0,1,.29,2.57,1.22,1.22,0,0,1-1.38-1.12,1.26,1.26,0,0,1,1.08-1.45Z"/><path class="cls-5" d="M238.17,525.08a1.2,1.2,0,0,1,1.3,1.17,1.23,1.23,0,0,1-1.12,1.38,1.2,1.2,0,0,1-1.32-1.19,1.18,1.18,0,0,1,1.13-1.36Z"/><path class="cls-5" d="M234,525.33a1.23,1.23,0,0,1,1.26,1.23,1.22,1.22,0,0,1-1.18,1.33,1.17,1.17,0,0,1-1.24-1.23,1.15,1.15,0,0,1,1.13-1.33Z"/><path class="cls-5" d="M229.74,525.41a1.29,1.29,0,0,1,0,2.57,1.16,1.16,0,0,1-1.19-1.25,1.18,1.18,0,0,1,1.17-1.32Z"/><path class="cls-5" d="M225.61,525.33a1.17,1.17,0,0,1,1.13,1.33,1.21,1.21,0,1,1-1.13-1.33Z"/><path class="cls-5" d="M221.34,525.08a1.28,1.28,0,0,1-.23,2.54,1.2,1.2,0,0,1-1.1-1.37,1.18,1.18,0,0,1,1.33-1.17Z"/><path class="cls-5" d="M217.24,524.65a1.2,1.2,0,0,1,1,1.42,1.21,1.21,0,0,1-1.39,1.12,1.28,1.28,0,0,1,.34-2.54Z"/><path class="cls-5" d="M213.07,524a1.29,1.29,0,1,1-1.44,1.06,1.19,1.19,0,0,1,1.44-1.06Z"/><path class="cls-5" d="M208.89,523.26a1.21,1.21,0,0,1,.91,1.48,1.27,1.27,0,0,1-1.48,1,1.2,1.2,0,0,1-.91-1.51,1.17,1.17,0,0,1,1.43-1Z"/><path class="cls-5" d="M204.75,522.29a1.29,1.29,0,0,1-.64,2.49,1.17,1.17,0,0,1-.85-1.53,1.15,1.15,0,0,1,1.49-1Z"/><path class="cls-5" d="M200.74,521.18a1.18,1.18,0,0,1,.74,1.56,1.23,1.23,0,0,1-1.55.88,1.15,1.15,0,0,1-.74-1.57,1.12,1.12,0,0,1,1.51-.87Z"/><path class="cls-5" d="M196.73,519.88a1.21,1.21,0,0,1,.7,1.61,1.18,1.18,0,0,1-1.56.8,1.16,1.16,0,0,1-.74-1.58,1.17,1.17,0,0,1,1.57-.83Z"/><path class="cls-5" d="M192.76,518.4a1.22,1.22,0,0,1,.62,1.66,1.19,1.19,0,0,1-1.61.73,1.29,1.29,0,0,1,1-2.39Z"/><path class="cls-5" d="M188.91,516.82a1.17,1.17,0,0,1,.59,1.64,1.23,1.23,0,0,1-1.66.68,1.17,1.17,0,0,1-.58-1.63,1.24,1.24,0,0,1,1.65-.73Z"/><path class="cls-5" d="M185.1,515a1.19,1.19,0,0,1,.49,1.69,1.17,1.17,0,0,1-1.64.6,1.14,1.14,0,0,1-.52-1.66,1.18,1.18,0,0,1,1.66-.63Z"/><path class="cls-5" d="M181.39,513.08a1.17,1.17,0,0,1,.41,1.69,1.2,1.2,0,0,1-1.69.55,1.18,1.18,0,0,1-.42-1.69,1.16,1.16,0,0,1,1.66-.55Z"/><path class="cls-5" d="M177.69,511a1.15,1.15,0,0,1,.35,1.68,1.2,1.2,0,0,1-1.71.49,1.22,1.22,0,0,1-.37-1.73,1.2,1.2,0,0,1,1.72-.47Z"/><path class="cls-5" d="M174.16,508.71a1.28,1.28,0,0,1-1.45,2.1,1.15,1.15,0,0,1-.3-1.71,1.21,1.21,0,0,1,1.73-.41Z"/><path class="cls-5" d="M170.65,506.3a1.15,1.15,0,0,1,.2,1.73,1.2,1.2,0,0,1-1.75.33,1.22,1.22,0,0,1-.2-1.75,1.18,1.18,0,0,1,1.73-.34Z"/><path class="cls-5" d="M167.34,503.76a1.22,1.22,0,0,1,.12,1.77,1.22,1.22,0,1,1-1.91-1.51,1.2,1.2,0,0,1,1.76-.26Z"/><path class="cls-5" d="M164.07,501.08a1.16,1.16,0,0,1,0,1.74,1.2,1.2,0,0,1-1.76.18,1.17,1.17,0,0,1-.06-1.75,1.2,1.2,0,0,1,1.78-.2Z"/><path class="cls-5" d="M161,498.31a1.19,1.19,0,0,1,0,1.75,1.22,1.22,0,1,1,0-1.78Z"/><path class="cls-5" d="M157.92,495.35a1.28,1.28,0,1,1-1.81,0,1.23,1.23,0,0,1,1.81,0Z"/><path class="cls-5" d="M155,492.26a1.21,1.21,0,0,1-.15,1.74,1.22,1.22,0,1,1-1.65-1.8,1.21,1.21,0,0,1,1.79.05Z"/><path class="cls-5" d="M152.25,489.12a1.27,1.27,0,1,1-1.76-.14,1.18,1.18,0,0,1,1.76.14Z"/><path class="cls-5" d="M149.61,485.8a1.16,1.16,0,0,1-.3,1.72,1.22,1.22,0,1,1-1.48-1.93,1.16,1.16,0,0,1,1.75.18Z"/><path class="cls-5" d="M147.1,482.35a1.29,1.29,0,0,1-2.12,1.46,1.17,1.17,0,0,1,.35-1.72,1.21,1.21,0,0,1,1.77.26Z"/><path class="cls-5" d="M144.77,478.9a1.16,1.16,0,0,1-.43,1.67,1.18,1.18,0,0,1-1.73-.31,1.28,1.28,0,0,1,2.13-1.4Z"/><path class="cls-5" d="M142.61,475.32a1.29,1.29,0,0,1-2.24,1.28,1.28,1.28,0,0,1,2.21-1.29Z"/><path class="cls-5" d="M140.51,471.6a1.19,1.19,0,0,1-.56,1.64,1.24,1.24,0,0,1-1.74-.47,1.23,1.23,0,0,1,.59-1.69,1.16,1.16,0,0,1,1.69.5Z"/><path class="cls-5" d="M138.62,467.83a1.29,1.29,0,1,1-1.67-.56,1.18,1.18,0,0,1,1.67.55Z"/><path class="cls-5" d="M136.89,464a1.19,1.19,0,0,1-.74,1.59,1.16,1.16,0,0,1-1.64-.6,1.21,1.21,0,0,1,.69-1.63,1.19,1.19,0,0,1,1.67.62Z"/><path class="cls-5" d="M135.34,460.13a1.28,1.28,0,0,1-2.41.85,1.17,1.17,0,0,1,.74-1.56,1.23,1.23,0,0,1,1.67.68Z"/><path class="cls-5" d="M133.91,456.12a1.28,1.28,0,1,1-1.57-.78,1.17,1.17,0,0,1,1.57.77Z"/><path class="cls-5" d="M132.67,452.11a1.18,1.18,0,0,1-.88,1.49,1.19,1.19,0,0,1-1.58-.83,1.23,1.23,0,0,1,.89-1.52,1.2,1.2,0,0,1,1.57.85Z"/><path class="cls-5" d="M131.6,448a1.19,1.19,0,0,1-.94,1.46,1.27,1.27,0,0,1-1.56-.91,1.21,1.21,0,0,1,1-1.47,1.18,1.18,0,0,1,1.52.88Z"/><path class="cls-5" d="M130.73,443.9a1.29,1.29,0,1,1-1.51-1,1.22,1.22,0,0,1,1.51,1Z"/><path class="cls-5" d="M130,439.78a1.17,1.17,0,0,1-1.08,1.35,1.22,1.22,0,1,1-.37-2.4,1.18,1.18,0,0,1,1.45,1Z"/><path class="cls-5" d="M129.45,435.59a1.22,1.22,0,0,1-1.15,1.32,1.22,1.22,0,1,1-.27-2.43,1.21,1.21,0,0,1,1.42,1.09Z"/><path class="cls-5" d="M129.07,431.34a1.21,1.21,0,0,1-1.2,1.29,1.17,1.17,0,0,1-1.33-1.16,1.12,1.12,0,0,1,1.15-1.26,1.2,1.2,0,0,1,1.38,1.12Z"/><path class="cls-5" d="M128.86,427.17a1.2,1.2,0,0,1-1.25,1.21,1.24,1.24,0,0,1-1.33-1.18,1.2,1.2,0,0,1,1.24-1.25,1.18,1.18,0,0,1,1.34,1.19Z"/><path class="cls-5" d="M128.85,422.91a1.29,1.29,0,0,1-2.58-.08,1.29,1.29,0,0,1,2.58.06Z"/><path class="cls-5" d="M129,418.68a1.22,1.22,0,0,1-1.37,1.14,1.25,1.25,0,0,1-1.21-1.29,1.2,1.2,0,0,1,1.35-1.15,1.22,1.22,0,0,1,1.23,1.28Z"/><path class="cls-5" d="M129.3,414.54a1.19,1.19,0,0,1-1.38,1,1.24,1.24,0,0,1-1.18-1.36,1.29,1.29,0,0,1,2.56.29Z"/><path class="cls-5" d="M129.78,410.33a1.19,1.19,0,0,1-1.41,1,1.22,1.22,0,1,1,.32-2.41,1.19,1.19,0,0,1,1.09,1.42Z"/><path class="cls-5" d="M130.48,406.17a1.22,1.22,0,0,1-1.5.94,1.19,1.19,0,0,1-1-1.42,1.18,1.18,0,0,1,1.47-1,1.22,1.22,0,0,1,1.07,1.44Z"/><path class="cls-5" d="M131.32,402a1.21,1.21,0,0,1-1.54.88,1.23,1.23,0,1,1,1.54-.89Z"/><path class="cls-5" d="M132.32,398a1.22,1.22,0,0,1-1.54.8,1.2,1.2,0,0,1-.95-1.53,1.18,1.18,0,0,1,1.53-.8,1.2,1.2,0,0,1,1,1.52Z"/><path class="cls-5" d="M133.51,393.88a1.24,1.24,0,0,1-1.6.75,1.22,1.22,0,0,1-.86-1.54,1.29,1.29,0,0,1,2.46.77Z"/><path class="cls-5" d="M134.83,389.92a1.2,1.2,0,0,1-1.61.67,1.21,1.21,0,1,1,1.61-.68Z"/><path class="cls-5" d="M136.36,386a1.16,1.16,0,0,1-1.62.6A1.19,1.19,0,0,1,134,385a1.22,1.22,0,0,1,1.65-.63,1.2,1.2,0,0,1,.73,1.63Z"/><path class="cls-5" d="M138.05,382.07a1.18,1.18,0,0,1-1.66.54,1.22,1.22,0,0,1-.66-1.65,1.29,1.29,0,0,1,2.32,1.11Z"/><path class="cls-5" d="M139.87,378.3a1.18,1.18,0,0,1-1.66.47,1.21,1.21,0,0,1-.58-1.68,1.23,1.23,0,0,1,1.7-.5,1.26,1.26,0,0,1,.59,1.7Z"/><path class="cls-5" d="M141.88,374.6a1.19,1.19,0,0,1-1.71.39,1.23,1.23,0,1,1,1.74-.41Z"/><path class="cls-5" d="M144,371a1.17,1.17,0,0,1-1.72.35,1.25,1.25,0,0,1-.47-1.72,1.23,1.23,0,0,1,1.77-.35,1.22,1.22,0,0,1,.44,1.71Z"/><path class="cls-5" d="M146.29,367.5a1.28,1.28,0,0,1-2.08-1.48,1.28,1.28,0,0,1,2.1,1.46Z"/><path class="cls-5" d="M148.78,364a1.29,1.29,0,0,1-2-1.56,1.16,1.16,0,0,1,1.74-.21,1.2,1.2,0,0,1,.3,1.75Z"/><path class="cls-5" d="M151.39,360.69a1.3,1.3,0,0,1-2-1.65,1.29,1.29,0,0,1,2,1.61Z"/><path class="cls-5" d="M154.07,357.47a1.14,1.14,0,0,1-1.73.06,1.19,1.19,0,0,1-.17-1.77,1.29,1.29,0,0,1,1.92,1.71Z"/><path class="cls-5" d="M156.93,354.35a1.14,1.14,0,0,1-1.73,0,1.23,1.23,0,1,1,1.7-1.77,1.25,1.25,0,0,1,.07,1.78Z"/><path class="cls-5" d="M159.88,351.44a1.22,1.22,0,0,1-1.76-.12,1.29,1.29,0,0,1,0-1.8,1.3,1.3,0,0,1,1.78,1.9Z"/></svg>